<svg width="423" height="424" viewBox="0 0 423 424" fill="none" xmlns="http://www.w3.org/2000/svg">
<path d="M209.259 112.103L208.776 112.086C203.697 111.909 198.883 109.774 195.343 106.128C191.913 102.596 189.936 97.9117 189.79 93.0022L189.781 92.5266V44.1047C189.792 38.9031 191.866 33.9178 195.548 30.2434C199.23 26.569 204.219 24.5051 209.421 24.5051H270.622L271.106 24.5139C276.111 24.6682 280.875 26.7291 284.417 30.2854C287.959 33.8417 290 38.6144 290.134 43.6194L290.141 44.1047V92.4875C290.13 97.6889 288.056 102.674 284.374 106.348C280.692 110.022 275.703 112.086 270.501 112.086H252.883L252.736 112.234L230.198 134.895L230.197 134.897C228.488 136.625 226.302 137.805 223.92 138.286C221.537 138.768 219.065 138.529 216.818 137.6C214.572 136.671 212.653 135.094 211.307 133.07C209.96 131.046 209.247 128.666 209.259 126.235V112.103ZM282.993 44.1018C282.982 40.8289 281.674 37.6933 279.355 35.3831C277.037 33.073 273.898 31.7756 270.625 31.7756H209.421C206.148 31.7756 203.009 33.073 200.69 35.3831C198.372 37.6933 197.063 40.8289 197.052 44.1018V92.4895C197.063 95.7623 198.372 98.8971 200.69 101.207C203.009 103.517 206.148 104.815 209.421 104.815H212.894C213.859 104.815 214.783 105.198 215.465 105.88C216.147 106.562 216.53 107.486 216.53 108.45V126.234C216.532 127.223 216.826 128.19 217.376 129.012C217.926 129.834 218.708 130.474 219.622 130.853C220.536 131.231 221.542 131.331 222.513 131.138C223.362 130.969 224.151 130.585 224.804 130.023L225.075 129.771L248.94 105.906C249.277 105.562 249.678 105.289 250.121 105.102C250.509 104.938 250.922 104.843 251.341 104.821L251.521 104.815H270.625C273.89 104.815 277.024 103.524 279.341 101.223C281.658 98.922 282.97 95.7978 282.993 92.5325V44.1018Z" stroke="white"/>
<path d="M353.623 162.711C354.587 162.711 355.512 163.094 356.193 163.775C356.875 164.457 357.258 165.382 357.258 166.346V248.641C357.258 249.605 356.875 250.53 356.193 251.212C355.512 251.893 354.587 252.276 353.623 252.276C352.659 252.276 351.733 251.893 351.052 251.212C350.37 250.53 349.987 249.605 349.987 248.641V166.346C349.987 165.382 350.37 164.457 351.052 163.775C351.733 163.093 352.659 162.711 353.623 162.711Z" stroke="white"/>
<mask id="path-3-inside-1_7641_13469" fill="white">
<path d="M407.797 182.433L397.293 179.166V117.135C397.29 114.127 396.507 111.172 395.02 108.558C393.532 105.944 391.391 103.761 388.807 102.223C386.222 100.685 383.283 99.8439 380.276 99.7829C377.269 99.722 374.298 100.443 371.653 101.875C329.637 124.661 311.814 135.372 259.997 148.605C258.867 146.933 257.346 145.562 255.566 144.611C253.786 143.66 251.8 143.157 249.782 143.146H241.139C238.288 143.167 235.53 144.169 233.331 145.984C231.131 147.799 229.625 150.317 229.064 153.113C223.233 153.444 225.756 153.361 170.424 153.361C163.898 153.366 157.606 155.785 152.757 160.152C147.909 164.519 144.848 170.526 144.164 177.016L123.487 185.865C121.287 186.825 119.413 188.403 118.091 190.407C116.77 192.411 116.059 194.755 116.043 197.155V224.738C116.059 227.138 116.77 229.483 118.091 231.486C119.413 233.49 121.287 235.068 123.487 236.028L144.164 244.878C144.845 251.262 147.828 257.179 152.554 261.525C157.28 265.87 163.426 268.346 169.845 268.491V281.6C169.85 284.169 170.831 286.641 172.589 288.514C174.347 290.387 176.751 291.523 179.315 291.691C180.285 317.731 190.353 342.607 207.766 361.993C209.566 363.915 211.761 365.425 214.2 366.417C216.639 367.408 219.265 367.859 221.895 367.737C224.526 367.615 227.098 366.924 229.436 365.711C231.773 364.498 233.819 362.792 235.432 360.711C238.21 357.378 239.693 353.156 239.609 348.819C239.526 344.482 237.881 340.32 234.977 337.098C223.588 324.504 216.847 308.395 215.872 291.443C218.197 290.992 220.293 289.747 221.802 287.922C223.311 286.096 224.138 283.803 224.143 281.435V268.491C225.714 268.491 227.244 268.491 228.774 268.491C229.335 271.287 230.842 273.804 233.041 275.62C235.241 277.435 237.998 278.437 240.85 278.457H249.369C251.385 278.469 253.373 277.976 255.15 277.022C256.927 276.069 258.437 274.686 259.542 272.999C310.407 285.736 331.333 298.018 371.198 319.729C373.843 321.161 376.814 321.882 379.821 321.821C382.828 321.76 385.767 320.919 388.352 319.381C390.936 317.843 393.077 315.66 394.565 313.046C396.052 310.432 396.835 307.477 396.838 304.469V242.438L407.342 239.171C410.54 238.302 413.364 236.407 415.381 233.777C417.398 231.147 418.497 227.928 418.507 224.614V196.948C418.516 193.7 417.479 190.535 415.551 187.921C413.622 185.307 410.903 183.383 407.797 182.433ZM143.998 235.614L126.919 228.377C126.206 228.057 125.599 227.541 125.167 226.89C124.735 226.239 124.497 225.478 124.479 224.697V196.99C124.497 196.208 124.735 195.448 125.167 194.796C125.599 194.145 126.206 193.629 126.919 193.309L143.998 185.948V235.614ZM183.45 161.466H203.466V174.906H183.45V161.466ZM183.45 183.177H203.466V196.08H183.45V183.177ZM183.45 204.351H203.466V217.212H183.45V204.351ZM183.45 225.483H203.466V238.385H183.45V225.483ZM183.45 246.656H203.466V260.096H183.45V246.656ZM175.179 260.096H170.382C165.571 260.085 160.959 258.169 157.557 254.767C154.155 251.364 152.239 246.753 152.228 241.942V179.621C152.239 174.809 154.155 170.198 157.557 166.796C160.959 163.394 165.571 161.477 170.382 161.466H175.138L175.179 260.096ZM228.94 342.804C230.494 344.573 231.371 346.835 231.417 349.19C231.462 351.544 230.672 353.838 229.188 355.666C233.53 359.098 233.323 359.139 229.188 355.666C228.293 356.763 227.173 357.656 225.903 358.283C224.633 358.911 223.243 359.258 221.827 359.301C220.412 359.344 219.003 359.082 217.697 358.533C216.392 357.985 215.219 357.162 214.259 356.12C198.118 338.4 188.683 315.593 187.586 291.649H207.601C208.626 310.598 216.114 328.623 228.816 342.722L228.94 342.804ZM216.161 281.435C216.161 281.932 215.967 282.41 215.619 282.766C215.271 283.121 214.798 283.326 214.3 283.337H180.018C179.517 283.327 179.039 283.123 178.684 282.768C178.33 282.414 178.126 281.936 178.116 281.435V268.367H216.161V281.435ZM228.857 260.344C223.316 260.013 219.428 260.096 211.695 260.096V161.466C219.759 161.466 223.481 161.466 228.857 161.218V260.344ZM253.67 266.341C253.67 267.437 253.234 268.489 252.458 269.265C251.683 270.04 250.631 270.476 249.534 270.476H241.139C240.042 270.476 238.991 270.04 238.215 269.265C237.44 268.489 237.004 267.437 237.004 266.341V239.336H253.546L253.67 266.341ZM237.128 231.065V214.937H253.67V231.065H237.128ZM253.67 206.666H237.128V155.222C237.128 154.125 237.564 153.073 238.339 152.298C239.115 151.522 240.167 151.086 241.263 151.086H249.782C250.879 151.086 251.931 151.522 252.706 152.298C253.482 153.073 253.918 154.125 253.918 155.222L253.67 206.666ZM389.022 304.593C389.016 306.163 388.603 307.705 387.825 309.068C387.047 310.431 385.929 311.57 384.58 312.374C383.231 313.177 381.697 313.618 380.128 313.653C378.558 313.688 377.006 313.317 375.623 312.574L357.758 302.815V279.284C357.758 278.188 357.322 277.136 356.547 276.36C355.771 275.585 354.719 275.149 353.623 275.149C352.526 275.149 351.474 275.585 350.698 276.36C349.923 277.136 349.487 278.188 349.487 279.284V298.431C319.257 282.138 299.076 275.604 268.474 266.837C266.324 266.216 264.339 265.638 261.94 265.141V249.551C298.456 258.938 308.877 265.141 311.565 265.141C312.459 265.054 313.299 264.679 313.961 264.073C314.622 263.466 315.068 262.661 315.232 261.778C315.395 260.896 315.267 259.984 314.867 259.181C314.467 258.377 313.816 257.726 313.013 257.325C296.353 250.858 279.293 245.471 261.94 241.197V156.421C266.076 155.47 269.88 154.312 281.17 151.086C304.908 144.33 327.822 134.954 349.487 123.131V141.534C349.487 142.63 349.923 143.682 350.698 144.458C351.474 145.233 352.526 145.669 353.623 145.669C354.719 145.669 355.771 145.233 356.547 144.458C357.322 143.682 357.758 142.63 357.758 141.534V118.665L375.623 108.988C377.006 108.246 378.558 107.874 380.128 107.909C381.697 107.945 383.231 108.385 384.58 109.189C385.929 109.992 387.047 111.131 387.825 112.494C388.603 113.858 389.016 115.399 389.022 116.969V304.593ZM410.236 224.614C410.246 226.096 409.776 227.541 408.897 228.734C408.017 229.926 406.775 230.802 405.357 231.231L397.293 233.712V187.85L405.357 190.332C406.775 190.76 408.017 191.636 408.897 192.829C409.776 194.021 410.246 195.466 410.236 196.948V224.614Z"/>
</mask>
<path d="M407.797 182.433L407.5 183.388L407.504 183.389L407.797 182.433ZM397.293 179.166H396.293V179.902L396.996 180.121L397.293 179.166ZM397.293 117.135L398.293 117.135L398.293 117.134L397.293 117.135ZM371.653 101.875L371.177 100.996L371.176 100.996L371.653 101.875ZM259.997 148.605L259.168 149.165L259.562 149.748L260.244 149.574L259.997 148.605ZM249.782 143.146L249.787 142.146H249.782V143.146ZM241.139 143.146V142.146L241.132 142.147L241.139 143.146ZM229.064 153.113L229.12 154.111L229.892 154.067L230.044 153.309L229.064 153.113ZM170.424 153.361L170.424 152.361L170.423 152.361L170.424 153.361ZM144.164 177.016L144.557 177.935L145.097 177.704L145.158 177.12L144.164 177.016ZM123.487 185.865L123.093 184.946L123.087 184.949L123.487 185.865ZM116.043 197.155L115.043 197.149V197.155H116.043ZM116.043 224.738H115.043L115.043 224.745L116.043 224.738ZM123.487 236.028L123.087 236.944L123.093 236.947L123.487 236.028ZM144.164 244.878L145.158 244.772L145.096 244.189L144.557 243.958L144.164 244.878ZM169.845 268.491H170.845V267.513L169.867 267.491L169.845 268.491ZM169.845 281.6L168.845 281.6L168.845 281.602L169.845 281.6ZM179.315 291.691L180.314 291.653L180.281 290.752L179.38 290.693L179.315 291.691ZM207.766 361.993L207.023 362.661L207.029 362.669L207.036 362.676L207.766 361.993ZM235.432 360.711L234.664 360.07L234.653 360.084L234.642 360.098L235.432 360.711ZM234.977 337.098L235.72 336.428L235.719 336.427L234.977 337.098ZM215.872 291.443L215.682 290.461L214.823 290.627L214.874 291.5L215.872 291.443ZM224.143 281.435L225.143 281.437V281.435H224.143ZM224.143 268.491V267.491H223.143V268.491H224.143ZM228.774 268.491L229.755 268.294L229.594 267.491H228.774V268.491ZM240.85 278.457L240.843 279.457H240.85V278.457ZM249.369 278.457L249.375 277.457H249.369V278.457ZM259.542 272.999L259.785 272.029L259.095 271.856L258.705 272.451L259.542 272.999ZM371.198 319.729L370.72 320.607L370.722 320.608L371.198 319.729ZM396.838 304.469L397.838 304.47V304.469H396.838ZM396.838 242.438L396.541 241.483L395.838 241.702V242.438H396.838ZM407.342 239.171L407.079 238.206L407.062 238.211L407.045 238.216L407.342 239.171ZM418.507 224.614L419.507 224.617V224.614H418.507ZM418.507 196.948L417.507 196.946V196.948H418.507ZM143.998 235.614L143.608 236.535L144.998 237.124V235.614H143.998ZM126.919 228.377L126.509 229.29L126.519 229.294L126.529 229.298L126.919 228.377ZM124.479 224.697H123.479V224.708L123.479 224.719L124.479 224.697ZM124.479 196.99L123.479 196.967L123.479 196.979V196.99H124.479ZM126.919 193.309L126.523 192.391L126.516 192.394L126.509 192.397L126.919 193.309ZM143.998 185.948H144.998V184.428L143.603 185.03L143.998 185.948ZM183.45 161.466V160.466H182.45V161.466H183.45ZM203.466 161.466H204.466V160.466H203.466V161.466ZM203.466 174.906V175.906H204.466V174.906H203.466ZM183.45 174.906H182.45V175.906H183.45V174.906ZM183.45 183.177V182.177H182.45V183.177H183.45ZM203.466 183.177H204.466V182.177H203.466V183.177ZM203.466 196.08V197.08H204.466V196.08H203.466ZM183.45 196.08H182.45V197.08H183.45V196.08ZM183.45 204.351V203.351H182.45V204.351H183.45ZM203.466 204.351H204.466V203.351H203.466V204.351ZM203.466 217.212V218.212H204.466V217.212H203.466ZM183.45 217.212H182.45V218.212H183.45V217.212ZM183.45 225.483V224.483H182.45V225.483H183.45ZM203.466 225.483H204.466V224.483H203.466V225.483ZM203.466 238.385V239.385H204.466V238.385H203.466ZM183.45 238.385H182.45V239.385H183.45V238.385ZM183.45 246.656V245.656H182.45V246.656H183.45ZM203.466 246.656H204.466V245.656H203.466V246.656ZM203.466 260.096V261.096H204.466V260.096H203.466ZM183.45 260.096H182.45V261.096H183.45V260.096ZM175.179 260.096V261.096H176.18L176.179 260.096L175.179 260.096ZM170.382 260.096L170.38 261.096H170.382V260.096ZM152.228 241.942L151.228 241.942L151.228 241.944L152.228 241.942ZM152.228 179.621L151.228 179.619V179.621H152.228ZM170.382 161.466L170.382 160.466L170.38 160.466L170.382 161.466ZM175.138 161.466L176.138 161.466L176.138 160.466H175.138V161.466ZM228.94 342.804L229.691 342.144L229.604 342.045L229.494 341.972L228.94 342.804ZM214.259 356.12L213.52 356.794L213.524 356.798L214.259 356.12ZM187.586 291.649V290.649H186.539L186.587 291.695L187.586 291.649ZM207.601 291.649L208.6 291.595L208.548 290.649H207.601V291.649ZM228.816 342.722L228.073 343.391L228.157 343.484L228.261 343.554L228.816 342.722ZM216.161 281.435L215.161 281.435L215.161 281.435L216.161 281.435ZM214.3 283.337V284.337H214.311L214.322 284.337L214.3 283.337ZM180.018 283.337L179.997 284.337L180.007 284.337H180.018V283.337ZM178.116 281.435H177.116V281.445L177.116 281.456L178.116 281.435ZM178.116 268.367V267.367H177.116V268.367H178.116ZM216.161 268.367H217.161V267.367H216.161V268.367ZM228.857 260.344L228.797 261.342L229.857 261.406V260.344H228.857ZM211.695 260.096H210.695V261.096H211.695V260.096ZM211.695 161.466V160.466H210.695V161.466H211.695ZM228.857 161.218H229.857V160.171L228.811 160.219L228.857 161.218ZM253.67 266.341H254.67L254.67 266.336L253.67 266.341ZM237.004 239.336V238.336H236.004V239.336H237.004ZM253.546 239.336L254.546 239.332L254.541 238.336H253.546V239.336ZM237.128 231.065H236.128V232.065H237.128V231.065ZM237.128 214.937V213.937H236.128V214.937H237.128ZM253.67 214.937H254.67V213.937H253.67V214.937ZM253.67 231.065V232.065H254.67V231.065H253.67ZM253.67 206.666V207.666H254.665L254.67 206.671L253.67 206.666ZM237.128 206.666H236.128V207.666H237.128V206.666ZM253.918 155.222L254.918 155.227V155.222H253.918ZM389.022 304.593L390.022 304.597V304.593H389.022ZM375.623 312.574L375.144 313.452L375.15 313.456L375.623 312.574ZM357.758 302.815H356.758V303.408L357.279 303.692L357.758 302.815ZM349.487 298.431L349.013 299.312L350.487 300.106V298.431H349.487ZM268.474 266.837L268.197 267.798L268.199 267.798L268.474 266.837ZM261.94 265.141H260.94V265.956L261.738 266.121L261.94 265.141ZM261.94 249.551L262.189 248.582L260.94 248.261V249.551H261.94ZM311.565 265.141V266.141H311.614L311.662 266.137L311.565 265.141ZM313.013 257.325L313.459 256.431L313.418 256.41L313.375 256.393L313.013 257.325ZM261.94 241.197H260.94V241.981L261.701 242.168L261.94 241.197ZM261.94 156.421L261.716 155.447L260.94 155.625V156.421H261.94ZM281.17 151.086L280.896 150.125L280.895 150.125L281.17 151.086ZM349.487 123.131H350.487V121.446L349.008 122.253L349.487 123.131ZM357.758 118.665L357.282 117.786L356.758 118.069V118.665H357.758ZM375.623 108.988L375.15 108.107L375.147 108.109L375.623 108.988ZM389.022 116.969H390.022L390.022 116.965L389.022 116.969ZM410.236 224.614H409.236L409.236 224.621L410.236 224.614ZM405.357 231.231L405.068 230.274L405.063 230.275L405.357 231.231ZM397.293 233.712H396.293V235.066L397.587 234.668L397.293 233.712ZM397.293 187.85L397.587 186.895L396.293 186.496V187.85H397.293ZM405.357 190.332L405.063 191.287L405.068 191.289L405.357 190.332ZM410.236 196.948L409.236 196.942V196.948H410.236ZM407.797 182.433L408.094 181.478L397.59 178.211L397.293 179.166L396.996 180.121L407.5 183.388L407.797 182.433ZM397.293 179.166H398.293V117.135H397.293H396.293V179.166H397.293ZM397.293 117.135L398.293 117.134C398.29 113.953 397.462 110.828 395.889 108.063L395.02 108.558L394.15 109.052C395.552 111.516 396.29 114.301 396.293 117.135L397.293 117.135ZM395.02 108.558L395.889 108.063C394.316 105.299 392.052 102.99 389.318 101.363L388.807 102.223L388.295 103.082C390.731 104.532 392.749 106.589 394.15 109.052L395.02 108.558ZM388.807 102.223L389.318 101.363C386.585 99.7367 383.476 98.8476 380.296 98.7831L380.276 99.7829L380.256 100.783C383.089 100.84 385.86 101.632 388.295 103.082L388.807 102.223ZM380.276 99.7829L380.296 98.7831C377.116 98.7187 373.974 99.4811 371.177 100.996L371.653 101.875L372.129 102.754C374.622 101.405 377.422 100.725 380.256 100.783L380.276 99.7829ZM371.653 101.875L371.176 100.996C329.172 123.776 311.439 134.435 259.749 147.636L259.997 148.605L260.244 149.574C312.188 136.308 330.103 125.546 372.13 102.754L371.653 101.875ZM259.997 148.605L260.825 148.045C259.604 146.238 257.96 144.757 256.037 143.729L255.566 144.611L255.094 145.493C256.731 146.367 258.129 147.628 259.168 149.165L259.997 148.605ZM255.566 144.611L256.037 143.729C254.113 142.701 251.968 142.158 249.787 142.147L249.782 143.146L249.777 144.146C251.633 144.156 253.458 144.618 255.094 145.493L255.566 144.611ZM249.782 143.146V142.146H241.139V143.146V144.146H249.782V143.146ZM241.139 143.146L241.132 142.147C238.051 142.169 235.071 143.251 232.694 145.213L233.331 145.984L233.967 146.755C235.989 145.087 238.525 144.165 241.146 144.146L241.139 143.146ZM233.331 145.984L232.694 145.213C230.318 147.174 228.689 149.895 228.083 152.916L229.064 153.113L230.044 153.309C230.56 150.739 231.945 148.424 233.967 146.755L233.331 145.984ZM229.064 153.113L229.007 152.114C223.214 152.443 225.786 152.361 170.424 152.361V153.361V154.361C225.725 154.361 223.252 154.444 229.12 154.111L229.064 153.113ZM170.424 153.361L170.423 152.361C163.651 152.366 157.12 154.877 152.088 159.409L152.757 160.152L153.427 160.895C158.091 156.693 164.146 154.366 170.424 154.361L170.424 153.361ZM152.757 160.152L152.088 159.409C147.056 163.942 143.879 170.176 143.169 176.911L144.164 177.016L145.158 177.12C145.817 170.877 148.762 165.097 153.427 160.895L152.757 160.152ZM144.164 177.016L143.77 176.096L123.093 184.946L123.487 185.865L123.88 186.785L144.557 177.935L144.164 177.016ZM123.487 185.865L123.087 184.949C120.71 185.986 118.684 187.691 117.257 189.856L118.091 190.407L118.926 190.957C120.141 189.115 121.864 187.665 123.887 186.782L123.487 185.865ZM118.091 190.407L117.257 189.856C115.829 192.022 115.06 194.555 115.043 197.149L116.043 197.155L117.043 197.162C117.057 194.955 117.712 192.8 118.926 190.957L118.091 190.407ZM116.043 197.155H115.043V224.738H116.043H117.043V197.155H116.043ZM116.043 224.738L115.043 224.745C115.06 227.338 115.829 229.871 117.257 232.037L118.091 231.486L118.926 230.936C117.712 229.094 117.057 226.938 117.043 224.732L116.043 224.738ZM118.091 231.486L117.257 232.037C118.684 234.202 120.71 235.907 123.087 236.944L123.487 236.028L123.887 235.111C121.864 234.229 120.141 232.778 118.926 230.936L118.091 231.486ZM123.487 236.028L123.093 236.947L143.77 245.797L144.164 244.878L144.557 243.958L123.88 235.109L123.487 236.028ZM144.164 244.878L143.169 244.984C143.877 251.609 146.972 257.751 151.877 262.261L152.554 261.525L153.231 260.788C148.683 256.607 145.814 250.914 145.158 244.772L144.164 244.878ZM152.554 261.525L151.877 262.261C156.782 266.771 163.161 269.341 169.822 269.491L169.845 268.491L169.867 267.491C163.692 267.352 157.778 264.969 153.231 260.788L152.554 261.525ZM169.845 268.491H168.845V281.6H169.845H170.845V268.491H169.845ZM169.845 281.6L168.845 281.602C168.85 284.425 169.928 287.14 171.86 289.198L172.589 288.514L173.318 287.83C171.733 286.141 170.849 283.914 170.845 281.598L169.845 281.6ZM172.589 288.514L171.86 289.198C173.791 291.257 176.433 292.504 179.249 292.688L179.315 291.691L179.38 290.693C177.069 290.542 174.903 289.518 173.318 287.83L172.589 288.514ZM179.315 291.691L178.315 291.728C179.294 318.002 189.452 343.102 207.023 362.661L207.766 361.993L208.51 361.324C191.253 342.113 181.276 317.46 180.314 291.653L179.315 291.691ZM207.766 361.993L207.036 362.676C208.934 364.704 211.25 366.297 213.823 367.343L214.2 366.417L214.577 365.49C212.271 364.553 210.197 363.127 208.497 361.309L207.766 361.993ZM214.2 366.417L213.823 367.343C216.397 368.389 219.167 368.865 221.942 368.736L221.895 367.737L221.849 366.738C219.363 366.853 216.882 366.428 214.577 365.49L214.2 366.417ZM221.895 367.737L221.942 368.736C224.717 368.607 227.431 367.878 229.896 366.598L229.436 365.711L228.975 364.823C226.766 365.97 224.335 366.623 221.849 366.738L221.895 367.737ZM229.436 365.711L229.896 366.598C232.362 365.318 234.52 363.519 236.223 361.324L235.432 360.711L234.642 360.098C233.117 362.065 231.184 363.677 228.975 364.823L229.436 365.711ZM235.432 360.711L236.201 361.351C239.132 357.834 240.697 353.378 240.609 348.8L239.609 348.819L238.609 348.839C238.688 352.935 237.288 356.923 234.664 360.07L235.432 360.711ZM239.609 348.819L240.609 348.8C240.521 344.222 238.785 339.83 235.72 336.428L234.977 337.098L234.235 337.767C236.977 340.811 238.531 344.742 238.609 348.839L239.609 348.819ZM234.977 337.098L235.719 336.427C224.483 324.002 217.832 308.109 216.87 291.385L215.872 291.443L214.874 291.5C215.862 308.68 222.693 325.005 234.236 337.768L234.977 337.098ZM215.872 291.443L216.062 292.424C218.615 291.929 220.916 290.563 222.573 288.559L221.802 287.922L221.031 287.285C219.67 288.932 217.779 290.054 215.682 290.461L215.872 291.443ZM221.802 287.922L222.573 288.559C224.229 286.555 225.138 284.037 225.143 281.437L224.143 281.435L223.143 281.433C223.138 283.569 222.392 285.638 221.031 287.285L221.802 287.922ZM224.143 281.435H225.143V268.491H224.143H223.143V281.435H224.143ZM224.143 268.491V269.491C224.146 269.491 224.149 269.491 224.152 269.491C224.155 269.491 224.158 269.491 224.161 269.491C224.164 269.491 224.167 269.491 224.17 269.491C224.173 269.491 224.176 269.491 224.18 269.491C224.183 269.491 224.186 269.491 224.189 269.491C224.192 269.491 224.195 269.491 224.198 269.491C224.201 269.491 224.204 269.491 224.207 269.491C224.21 269.491 224.213 269.491 224.216 269.491C224.219 269.491 224.222 269.491 224.226 269.491C224.229 269.491 224.232 269.491 224.235 269.491C224.238 269.491 224.241 269.491 224.244 269.491C224.247 269.491 224.25 269.491 224.253 269.491C224.256 269.491 224.259 269.491 224.262 269.491C224.265 269.491 224.268 269.491 224.272 269.491C224.275 269.491 224.278 269.491 224.281 269.491C224.284 269.491 224.287 269.491 224.29 269.491C224.293 269.491 224.296 269.491 224.299 269.491C224.302 269.491 224.305 269.491 224.308 269.491C224.311 269.491 224.314 269.491 224.317 269.491C224.321 269.491 224.324 269.491 224.327 269.491C224.33 269.491 224.333 269.491 224.336 269.491C224.339 269.491 224.342 269.491 224.345 269.491C224.348 269.491 224.351 269.491 224.354 269.491C224.357 269.491 224.36 269.491 224.363 269.491C224.366 269.491 224.37 269.491 224.373 269.491C224.376 269.491 224.379 269.491 224.382 269.491C224.385 269.491 224.388 269.491 224.391 269.491C224.394 269.491 224.397 269.491 224.4 269.491C224.403 269.491 224.406 269.491 224.409 269.491C224.412 269.491 224.415 269.491 224.419 269.491C224.422 269.491 224.425 269.491 224.428 269.491C224.431 269.491 224.434 269.491 224.437 269.491C224.44 269.491 224.443 269.491 224.446 269.491C224.449 269.491 224.452 269.491 224.455 269.491C224.458 269.491 224.461 269.491 224.464 269.491C224.467 269.491 224.471 269.491 224.474 269.491C224.477 269.491 224.48 269.491 224.483 269.491C224.486 269.491 224.489 269.491 224.492 269.491C224.495 269.491 224.498 269.491 224.501 269.491C224.504 269.491 224.507 269.491 224.51 269.491C224.513 269.491 224.516 269.491 224.519 269.491C224.523 269.491 224.526 269.491 224.529 269.491C224.532 269.491 224.535 269.491 224.538 269.491C224.541 269.491 224.544 269.491 224.547 269.491C224.55 269.491 224.553 269.491 224.556 269.491C224.559 269.491 224.562 269.491 224.565 269.491C224.568 269.491 224.571 269.491 224.574 269.491C224.578 269.491 224.581 269.491 224.584 269.491C224.587 269.491 224.59 269.491 224.593 269.491C224.596 269.491 224.599 269.491 224.602 269.491C224.605 269.491 224.608 269.491 224.611 269.491C224.614 269.491 224.617 269.491 224.62 269.491C224.623 269.491 224.626 269.491 224.629 269.491C224.632 269.491 224.636 269.491 224.639 269.491C224.642 269.491 224.645 269.491 224.648 269.491C224.651 269.491 224.654 269.491 224.657 269.491C224.66 269.491 224.663 269.491 224.666 269.491C224.669 269.491 224.672 269.491 224.675 269.491C224.678 269.491 224.681 269.491 224.684 269.491C224.687 269.491 224.69 269.491 224.694 269.491C224.697 269.491 224.7 269.491 224.703 269.491C224.706 269.491 224.709 269.491 224.712 269.491C224.715 269.491 224.718 269.491 224.721 269.491C224.724 269.491 224.727 269.491 224.73 269.491C224.733 269.491 224.736 269.491 224.739 269.491C224.742 269.491 224.745 269.491 224.748 269.491C224.751 269.491 224.755 269.491 224.758 269.491C224.761 269.491 224.764 269.491 224.767 269.491C224.77 269.491 224.773 269.491 224.776 269.491C224.779 269.491 224.782 269.491 224.785 269.491C224.788 269.491 224.791 269.491 224.794 269.491C224.797 269.491 224.8 269.491 224.803 269.491C224.806 269.491 224.809 269.491 224.812 269.491C224.816 269.491 224.819 269.491 224.822 269.491C224.825 269.491 224.828 269.491 224.831 269.491C224.834 269.491 224.837 269.491 224.84 269.491C224.843 269.491 224.846 269.491 224.849 269.491C224.852 269.491 224.855 269.491 224.858 269.491C224.861 269.491 224.864 269.491 224.867 269.491C224.87 269.491 224.873 269.491 224.876 269.491C224.88 269.491 224.883 269.491 224.886 269.491C224.889 269.491 224.892 269.491 224.895 269.491C224.898 269.491 224.901 269.491 224.904 269.491C224.907 269.491 224.91 269.491 224.913 269.491C224.916 269.491 224.919 269.491 224.922 269.491C224.925 269.491 224.928 269.491 224.931 269.491C224.934 269.491 224.937 269.491 224.94 269.491C224.943 269.491 224.946 269.491 224.95 269.491C224.953 269.491 224.956 269.491 224.959 269.491C224.962 269.491 224.965 269.491 224.968 269.491C224.971 269.491 224.974 269.491 224.977 269.491C224.98 269.491 224.983 269.491 224.986 269.491C224.989 269.491 224.992 269.491 224.995 269.491C224.998 269.491 225.001 269.491 225.004 269.491C225.007 269.491 225.01 269.491 225.013 269.491C225.016 269.491 225.02 269.491 225.023 269.491C225.026 269.491 225.029 269.491 225.032 269.491C225.035 269.491 225.038 269.491 225.041 269.491C225.044 269.491 225.047 269.491 225.05 269.491C225.053 269.491 225.056 269.491 225.059 269.491C225.062 269.491 225.065 269.491 225.068 269.491C225.071 269.491 225.074 269.491 225.077 269.491C225.08 269.491 225.083 269.491 225.086 269.491C225.089 269.491 225.093 269.491 225.096 269.491C225.099 269.491 225.102 269.491 225.105 269.491C225.108 269.491 225.111 269.491 225.114 269.491C225.117 269.491 225.12 269.491 225.123 269.491C225.126 269.491 225.129 269.491 225.132 269.491C225.135 269.491 225.138 269.491 225.141 269.491C225.144 269.491 225.147 269.491 225.15 269.491C225.153 269.491 225.156 269.491 225.159 269.491C225.162 269.491 225.165 269.491 225.168 269.491C225.172 269.491 225.175 269.491 225.178 269.491C225.181 269.491 225.184 269.491 225.187 269.491C225.19 269.491 225.193 269.491 225.196 269.491C225.199 269.491 225.202 269.491 225.205 269.491C225.208 269.491 225.211 269.491 225.214 269.491C225.217 269.491 225.22 269.491 225.223 269.491C225.226 269.491 225.229 269.491 225.232 269.491C225.235 269.491 225.238 269.491 225.241 269.491C225.244 269.491 225.247 269.491 225.25 269.491C225.254 269.491 225.257 269.491 225.26 269.491C225.263 269.491 225.266 269.491 225.269 269.491C225.272 269.491 225.275 269.491 225.278 269.491C225.281 269.491 225.284 269.491 225.287 269.491C225.29 269.491 225.293 269.491 225.296 269.491C225.299 269.491 225.302 269.491 225.305 269.491C225.308 269.491 225.311 269.491 225.314 269.491C225.317 269.491 225.32 269.491 225.323 269.491C225.326 269.491 225.329 269.491 225.332 269.491C225.335 269.491 225.338 269.491 225.341 269.491C225.345 269.491 225.348 269.491 225.351 269.491C225.354 269.491 225.357 269.491 225.36 269.491C225.363 269.491 225.366 269.491 225.369 269.491C225.372 269.491 225.375 269.491 225.378 269.491C225.381 269.491 225.384 269.491 225.387 269.491C225.39 269.491 225.393 269.491 225.396 269.491C225.399 269.491 225.402 269.491 225.405 269.491C225.408 269.491 225.411 269.491 225.414 269.491C225.417 269.491 225.42 269.491 225.423 269.491C225.426 269.491 225.429 269.491 225.432 269.491C225.435 269.491 225.439 269.491 225.442 269.491C225.445 269.491 225.448 269.491 225.451 269.491C225.454 269.491 225.457 269.491 225.46 269.491C225.463 269.491 225.466 269.491 225.469 269.491C225.472 269.491 225.475 269.491 225.478 269.491C225.481 269.491 225.484 269.491 225.487 269.491C225.49 269.491 225.493 269.491 225.496 269.491C225.499 269.491 225.502 269.491 225.505 269.491C225.508 269.491 225.511 269.491 225.514 269.491C225.517 269.491 225.52 269.491 225.523 269.491C225.526 269.491 225.529 269.491 225.532 269.491C225.535 269.491 225.538 269.491 225.542 269.491C225.545 269.491 225.548 269.491 225.551 269.491C225.554 269.491 225.557 269.491 225.56 269.491C225.563 269.491 225.566 269.491 225.569 269.491C225.572 269.491 225.575 269.491 225.578 269.491C225.581 269.491 225.584 269.491 225.587 269.491C225.59 269.491 225.593 269.491 225.596 269.491C225.599 269.491 225.602 269.491 225.605 269.491C225.608 269.491 225.611 269.491 225.614 269.491C225.617 269.491 225.62 269.491 225.623 269.491C225.626 269.491 225.629 269.491 225.632 269.491C225.635 269.491 225.638 269.491 225.641 269.491C225.644 269.491 225.647 269.491 225.65 269.491C225.654 269.491 225.657 269.491 225.66 269.491C225.663 269.491 225.666 269.491 225.669 269.491C225.672 269.491 225.675 269.491 225.678 269.491C225.681 269.491 225.684 269.491 225.687 269.491C225.69 269.491 225.693 269.491 225.696 269.491C225.699 269.491 225.702 269.491 225.705 269.491C225.708 269.491 225.711 269.491 225.714 269.491C225.717 269.491 225.72 269.491 225.723 269.491C225.726 269.491 225.729 269.491 225.732 269.491C225.735 269.491 225.738 269.491 225.741 269.491C225.744 269.491 225.747 269.491 225.75 269.491C225.753 269.491 225.756 269.491 225.759 269.491C225.762 269.491 225.765 269.491 225.768 269.491C225.771 269.491 225.774 269.491 225.778 269.491C225.781 269.491 225.784 269.491 225.787 269.491C225.79 269.491 225.793 269.491 225.796 269.491C225.799 269.491 225.802 269.491 225.805 269.491C225.808 269.491 225.811 269.491 225.814 269.491C225.817 269.491 225.82 269.491 225.823 269.491C225.826 269.491 225.829 269.491 225.832 269.491C225.835 269.491 225.838 269.491 225.841 269.491C225.844 269.491 225.847 269.491 225.85 269.491C225.853 269.491 225.856 269.491 225.859 269.491C225.862 269.491 225.865 269.491 225.868 269.491C225.871 269.491 225.874 269.491 225.877 269.491C225.88 269.491 225.883 269.491 225.886 269.491C225.889 269.491 225.892 269.491 225.895 269.491C225.898 269.491 225.901 269.491 225.904 269.491C225.907 269.491 225.91 269.491 225.913 269.491C225.916 269.491 225.919 269.491 225.923 269.491C225.926 269.491 225.929 269.491 225.932 269.491C225.935 269.491 225.938 269.491 225.941 269.491C225.944 269.491 225.947 269.491 225.95 269.491C225.953 269.491 225.956 269.491 225.959 269.491C225.962 269.491 225.965 269.491 225.968 269.491C225.971 269.491 225.974 269.491 225.977 269.491C225.98 269.491 225.983 269.491 225.986 269.491C225.989 269.491 225.992 269.491 225.995 269.491C225.998 269.491 226.001 269.491 226.004 269.491C226.007 269.491 226.01 269.491 226.013 269.491C226.016 269.491 226.019 269.491 226.022 269.491C226.025 269.491 226.028 269.491 226.031 269.491C226.034 269.491 226.037 269.491 226.04 269.491C226.043 269.491 226.046 269.491 226.049 269.491C226.052 269.491 226.055 269.491 226.058 269.491C226.061 269.491 226.064 269.491 226.067 269.491C226.07 269.491 226.073 269.491 226.076 269.491C226.079 269.491 226.082 269.491 226.085 269.491C226.088 269.491 226.092 269.491 226.095 269.491C226.098 269.491 226.101 269.491 226.104 269.491C226.107 269.491 226.11 269.491 226.113 269.491C226.116 269.491 226.119 269.491 226.122 269.491C226.125 269.491 226.128 269.491 226.131 269.491C226.134 269.491 226.137 269.491 226.14 269.491C226.143 269.491 226.146 269.491 226.149 269.491C226.152 269.491 226.155 269.491 226.158 269.491C226.161 269.491 226.164 269.491 226.167 269.491C226.17 269.491 226.173 269.491 226.176 269.491C226.179 269.491 226.182 269.491 226.185 269.491C226.188 269.491 226.191 269.491 226.194 269.491C226.197 269.491 226.2 269.491 226.203 269.491C226.206 269.491 226.209 269.491 226.212 269.491C226.215 269.491 226.218 269.491 226.221 269.491C226.224 269.491 226.227 269.491 226.23 269.491C226.233 269.491 226.236 269.491 226.239 269.491C226.242 269.491 226.245 269.491 226.248 269.491C226.251 269.491 226.254 269.491 226.257 269.491C226.26 269.491 226.263 269.491 226.266 269.491C226.269 269.491 226.272 269.491 226.275 269.491C226.278 269.491 226.281 269.491 226.284 269.491C226.287 269.491 226.29 269.491 226.293 269.491C226.296 269.491 226.299 269.491 226.302 269.491C226.305 269.491 226.308 269.491 226.312 269.491C226.315 269.491 226.318 269.491 226.321 269.491C226.324 269.491 226.327 269.491 226.33 269.491C226.333 269.491 226.336 269.491 226.339 269.491C226.342 269.491 226.345 269.491 226.348 269.491C226.351 269.491 226.354 269.491 226.357 269.491C226.36 269.491 226.363 269.491 226.366 269.491C226.369 269.491 226.372 269.491 226.375 269.491C226.378 269.491 226.381 269.491 226.384 269.491C226.387 269.491 226.39 269.491 226.393 269.491C226.396 269.491 226.399 269.491 226.402 269.491C226.405 269.491 226.408 269.491 226.411 269.491C226.414 269.491 226.417 269.491 226.42 269.491C226.423 269.491 226.426 269.491 226.429 269.491C226.432 269.491 226.435 269.491 226.438 269.491C226.441 269.491 226.444 269.491 226.447 269.491C226.45 269.491 226.453 269.491 226.456 269.491C226.459 269.491 226.462 269.491 226.465 269.491C226.468 269.491 226.471 269.491 226.474 269.491C226.477 269.491 226.48 269.491 226.483 269.491C226.486 269.491 226.489 269.491 226.492 269.491C226.495 269.491 226.498 269.491 226.501 269.491C226.504 269.491 226.507 269.491 226.51 269.491C226.513 269.491 226.516 269.491 226.519 269.491C226.522 269.491 226.525 269.491 226.528 269.491C226.531 269.491 226.534 269.491 226.537 269.491C226.54 269.491 226.543 269.491 226.546 269.491C226.549 269.491 226.552 269.491 226.555 269.491C226.558 269.491 226.561 269.491 226.564 269.491C226.567 269.491 226.57 269.491 226.573 269.491C226.576 269.491 226.579 269.491 226.582 269.491C226.585 269.491 226.588 269.491 226.591 269.491C226.594 269.491 226.597 269.491 226.6 269.491C226.603 269.491 226.606 269.491 226.609 269.491C226.612 269.491 226.615 269.491 226.618 269.491C226.621 269.491 226.624 269.491 226.627 269.491C226.63 269.491 226.633 269.491 226.636 269.491C226.639 269.491 226.642 269.491 226.645 269.491C226.648 269.491 226.651 269.491 226.654 269.491C226.657 269.491 226.66 269.491 226.663 269.491C226.666 269.491 226.67 269.491 226.673 269.491C226.676 269.491 226.679 269.491 226.682 269.491C226.685 269.491 226.688 269.491 226.691 269.491C226.694 269.491 226.697 269.491 226.7 269.491C226.703 269.491 226.706 269.491 226.709 269.491C226.712 269.491 226.715 269.491 226.718 269.491C226.721 269.491 226.724 269.491 226.727 269.491C226.73 269.491 226.733 269.491 226.736 269.491C226.739 269.491 226.742 269.491 226.745 269.491C226.748 269.491 226.751 269.491 226.754 269.491C226.757 269.491 226.76 269.491 226.763 269.491C226.766 269.491 226.769 269.491 226.772 269.491C226.775 269.491 226.778 269.491 226.781 269.491C226.784 269.491 226.787 269.491 226.79 269.491C226.793 269.491 226.796 269.491 226.799 269.491C226.802 269.491 226.805 269.491 226.808 269.491C226.811 269.491 226.814 269.491 226.817 269.491C226.82 269.491 226.823 269.491 226.826 269.491C226.829 269.491 226.832 269.491 226.835 269.491C226.838 269.491 226.841 269.491 226.844 269.491C226.847 269.491 226.85 269.491 226.853 269.491C226.856 269.491 226.859 269.491 226.862 269.491C226.865 269.491 226.868 269.491 226.871 269.491C226.874 269.491 226.877 269.491 226.88 269.491C226.883 269.491 226.886 269.491 226.889 269.491C226.892 269.491 226.895 269.491 226.898 269.491C226.901 269.491 226.904 269.491 226.907 269.491C226.91 269.491 226.913 269.491 226.916 269.491C226.919 269.491 226.922 269.491 226.925 269.491C226.928 269.491 226.931 269.491 226.934 269.491C226.937 269.491 226.94 269.491 226.943 269.491C226.946 269.491 226.949 269.491 226.952 269.491C226.955 269.491 226.958 269.491 226.961 269.491C226.964 269.491 226.967 269.491 226.97 269.491C226.973 269.491 226.976 269.491 226.979 269.491C226.982 269.491 226.985 269.491 226.988 269.491C226.991 269.491 226.994 269.491 226.997 269.491C227 269.491 227.003 269.491 227.006 269.491C227.009 269.491 227.012 269.491 227.015 269.491C227.018 269.491 227.021 269.491 227.024 269.491C227.027 269.491 227.03 269.491 227.033 269.491C227.036 269.491 227.039 269.491 227.042 269.491C227.045 269.491 227.048 269.491 227.051 269.491C227.054 269.491 227.057 269.491 227.06 269.491C227.063 269.491 227.066 269.491 227.069 269.491C227.072 269.491 227.075 269.491 227.078 269.491C227.081 269.491 227.084 269.491 227.087 269.491C227.09 269.491 227.093 269.491 227.096 269.491C227.099 269.491 227.102 269.491 227.105 269.491C227.108 269.491 227.111 269.491 227.114 269.491C227.117 269.491 227.12 269.491 227.123 269.491C227.126 269.491 227.129 269.491 227.132 269.491C227.135 269.491 227.138 269.491 227.141 269.491C227.144 269.491 227.147 269.491 227.15 269.491C227.153 269.491 227.156 269.491 227.159 269.491C227.162 269.491 227.165 269.491 227.168 269.491C227.171 269.491 227.174 269.491 227.177 269.491C227.18 269.491 227.183 269.491 227.186 269.491C227.189 269.491 227.192 269.491 227.195 269.491C227.198 269.491 227.201 269.491 227.204 269.491C227.207 269.491 227.21 269.491 227.213 269.491C227.216 269.491 227.219 269.491 227.222 269.491C227.225 269.491 227.228 269.491 227.231 269.491C227.234 269.491 227.237 269.491 227.24 269.491C227.243 269.491 227.246 269.491 227.249 269.491C227.252 269.491 227.255 269.491 227.258 269.491C227.261 269.491 227.264 269.491 227.267 269.491C227.27 269.491 227.273 269.491 227.276 269.491C227.279 269.491 227.282 269.491 227.285 269.491C227.288 269.491 227.291 269.491 227.294 269.491C227.297 269.491 227.3 269.491 227.303 269.491C227.306 269.491 227.309 269.491 227.312 269.491C227.315 269.491 227.318 269.491 227.321 269.491C227.324 269.491 227.327 269.491 227.33 269.491C227.333 269.491 227.336 269.491 227.339 269.491C227.342 269.491 227.345 269.491 227.348 269.491C227.351 269.491 227.354 269.491 227.357 269.491C227.36 269.491 227.363 269.491 227.366 269.491C227.369 269.491 227.372 269.491 227.375 269.491C227.378 269.491 227.381 269.491 227.384 269.491C227.387 269.491 227.39 269.491 227.393 269.491C227.396 269.491 227.399 269.491 227.402 269.491C227.405 269.491 227.408 269.491 227.411 269.491C227.414 269.491 227.417 269.491 227.42 269.491C227.423 269.491 227.426 269.491 227.429 269.491C227.432 269.491 227.435 269.491 227.438 269.491C227.44 269.491 227.443 269.491 227.446 269.491C227.449 269.491 227.452 269.491 227.455 269.491C227.458 269.491 227.461 269.491 227.464 269.491C227.467 269.491 227.47 269.491 227.473 269.491C227.476 269.491 227.479 269.491 227.482 269.491C227.485 269.491 227.488 269.491 227.491 269.491C227.494 269.491 227.497 269.491 227.5 269.491C227.503 269.491 227.506 269.491 227.509 269.491C227.512 269.491 227.515 269.491 227.518 269.491C227.521 269.491 227.524 269.491 227.527 269.491C227.53 269.491 227.533 269.491 227.536 269.491C227.539 269.491 227.542 269.491 227.545 269.491C227.548 269.491 227.551 269.491 227.554 269.491C227.557 269.491 227.56 269.491 227.563 269.491C227.566 269.491 227.569 269.491 227.572 269.491C227.575 269.491 227.578 269.491 227.581 269.491C227.584 269.491 227.587 269.491 227.59 269.491C227.593 269.491 227.596 269.491 227.599 269.491C227.602 269.491 227.605 269.491 227.608 269.491C227.611 269.491 227.614 269.491 227.617 269.491C227.62 269.491 227.623 269.491 227.626 269.491C227.629 269.491 227.632 269.491 227.635 269.491C227.638 269.491 227.641 269.491 227.644 269.491C227.647 269.491 227.65 269.491 227.653 269.491C227.656 269.491 227.659 269.491 227.662 269.491C227.665 269.491 227.668 269.491 227.671 269.491C227.674 269.491 227.677 269.491 227.68 269.491C227.683 269.491 227.686 269.491 227.689 269.491C227.692 269.491 227.695 269.491 227.698 269.491C227.701 269.491 227.704 269.491 227.707 269.491C227.71 269.491 227.713 269.491 227.716 269.491C227.719 269.491 227.722 269.491 227.725 269.491C227.728 269.491 227.731 269.491 227.734 269.491C227.737 269.491 227.74 269.491 227.743 269.491C227.746 269.491 227.749 269.491 227.752 269.491C227.755 269.491 227.758 269.491 227.761 269.491C227.764 269.491 227.767 269.491 227.77 269.491C227.773 269.491 227.776 269.491 227.779 269.491C227.782 269.491 227.785 269.491 227.788 269.491C227.791 269.491 227.794 269.491 227.797 269.491C227.8 269.491 227.803 269.491 227.806 269.491C227.809 269.491 227.812 269.491 227.815 269.491C227.818 269.491 227.821 269.491 227.824 269.491C227.827 269.491 227.83 269.491 227.833 269.491C227.836 269.491 227.839 269.491 227.842 269.491C227.845 269.491 227.848 269.491 227.851 269.491C227.854 269.491 227.857 269.491 227.86 269.491C227.863 269.491 227.866 269.491 227.869 269.491C227.872 269.491 227.875 269.491 227.878 269.491C227.881 269.491 227.884 269.491 227.886 269.491C227.889 269.491 227.892 269.491 227.895 269.491C227.898 269.491 227.901 269.491 227.904 269.491C227.907 269.491 227.91 269.491 227.913 269.491C227.916 269.491 227.919 269.491 227.922 269.491C227.925 269.491 227.928 269.491 227.931 269.491C227.934 269.491 227.937 269.491 227.94 269.491C227.943 269.491 227.946 269.491 227.949 269.491C227.952 269.491 227.955 269.491 227.958 269.491C227.961 269.491 227.964 269.491 227.967 269.491C227.97 269.491 227.973 269.491 227.976 269.491C227.979 269.491 227.982 269.491 227.985 269.491C227.988 269.491 227.991 269.491 227.994 269.491C227.997 269.491 228 269.491 228.003 269.491C228.006 269.491 228.009 269.491 228.012 269.491C228.015 269.491 228.018 269.491 228.021 269.491C228.024 269.491 228.027 269.491 228.03 269.491C228.033 269.491 228.036 269.491 228.039 269.491C228.042 269.491 228.045 269.491 228.048 269.491C228.051 269.491 228.054 269.491 228.057 269.491C228.06 269.491 228.063 269.491 228.066 269.491C228.069 269.491 228.072 269.491 228.075 269.491C228.078 269.491 228.081 269.491 228.084 269.491C228.087 269.491 228.09 269.491 228.093 269.491C228.096 269.491 228.099 269.491 228.102 269.491C228.105 269.491 228.108 269.491 228.111 269.491C228.114 269.491 228.117 269.491 228.12 269.491C228.123 269.491 228.126 269.491 228.129 269.491C228.132 269.491 228.135 269.491 228.138 269.491C228.141 269.491 228.144 269.491 228.147 269.491C228.15 269.491 228.153 269.491 228.156 269.491C228.159 269.491 228.162 269.491 228.165 269.491C228.168 269.491 228.171 269.491 228.174 269.491C228.177 269.491 228.18 269.491 228.183 269.491C228.186 269.491 228.189 269.491 228.192 269.491C228.195 269.491 228.198 269.491 228.201 269.491C228.203 269.491 228.206 269.491 228.209 269.491C228.212 269.491 228.215 269.491 228.218 269.491C228.221 269.491 228.224 269.491 228.227 269.491C228.23 269.491 228.233 269.491 228.236 269.491C228.239 269.491 228.242 269.491 228.245 269.491C228.248 269.491 228.251 269.491 228.254 269.491C228.257 269.491 228.26 269.491 228.263 269.491C228.266 269.491 228.269 269.491 228.272 269.491C228.275 269.491 228.278 269.491 228.281 269.491C228.284 269.491 228.287 269.491 228.29 269.491C228.293 269.491 228.296 269.491 228.299 269.491C228.302 269.491 228.305 269.491 228.308 269.491C228.311 269.491 228.314 269.491 228.317 269.491C228.32 269.491 228.323 269.491 228.326 269.491C228.329 269.491 228.332 269.491 228.335 269.491C228.338 269.491 228.341 269.491 228.344 269.491C228.347 269.491 228.35 269.491 228.353 269.491C228.356 269.491 228.359 269.491 228.362 269.491C228.365 269.491 228.368 269.491 228.371 269.491C228.374 269.491 228.377 269.491 228.38 269.491C228.383 269.491 228.386 269.491 228.389 269.491C228.392 269.491 228.395 269.491 228.398 269.491C228.401 269.491 228.404 269.491 228.407 269.491C228.41 269.491 228.413 269.491 228.416 269.491C228.419 269.491 228.422 269.491 228.425 269.491C228.428 269.491 228.431 269.491 228.434 269.491C228.437 269.491 228.44 269.491 228.443 269.491C228.446 269.491 228.449 269.491 228.452 269.491C228.455 269.491 228.458 269.491 228.461 269.491C228.464 269.491 228.467 269.491 228.47 269.491C228.473 269.491 228.476 269.491 228.479 269.491C228.481 269.491 228.484 269.491 228.487 269.491C228.49 269.491 228.493 269.491 228.496 269.491C228.499 269.491 228.502 269.491 228.505 269.491C228.508 269.491 228.511 269.491 228.514 269.491C228.517 269.491 228.52 269.491 228.523 269.491C228.526 269.491 228.529 269.491 228.532 269.491C228.535 269.491 228.538 269.491 228.541 269.491C228.544 269.491 228.547 269.491 228.55 269.491C228.553 269.491 228.556 269.491 228.559 269.491C228.562 269.491 228.565 269.491 228.568 269.491C228.571 269.491 228.574 269.491 228.577 269.491C228.58 269.491 228.583 269.491 228.586 269.491C228.589 269.491 228.592 269.491 228.595 269.491C228.598 269.491 228.601 269.491 228.604 269.491C228.607 269.491 228.61 269.491 228.613 269.491C228.616 269.491 228.619 269.491 228.622 269.491C228.625 269.491 228.628 269.491 228.631 269.491C228.634 269.491 228.637 269.491 228.64 269.491C228.643 269.491 228.646 269.491 228.649 269.491C228.652 269.491 228.655 269.491 228.658 269.491C228.661 269.491 228.664 269.491 228.667 269.491C228.67 269.491 228.673 269.491 228.676 269.491C228.679 269.491 228.682 269.491 228.685 269.491C228.688 269.491 228.691 269.491 228.694 269.491C228.697 269.491 228.7 269.491 228.703 269.491C228.706 269.491 228.709 269.491 228.712 269.491C228.715 269.491 228.718 269.491 228.721 269.491C228.724 269.491 228.727 269.491 228.73 269.491C228.733 269.491 228.736 269.491 228.739 269.491C228.741 269.491 228.744 269.491 228.747 269.491C228.75 269.491 228.753 269.491 228.756 269.491C228.759 269.491 228.762 269.491 228.765 269.491C228.768 269.491 228.771 269.491 228.774 269.491V268.491V267.491C228.771 267.491 228.768 267.491 228.765 267.491C228.762 267.491 228.759 267.491 228.756 267.491C228.753 267.491 228.75 267.491 228.747 267.491C228.744 267.491 228.741 267.491 228.739 267.491C228.736 267.491 228.733 267.491 228.73 267.491C228.727 267.491 228.724 267.491 228.721 267.491C228.718 267.491 228.715 267.491 228.712 267.491C228.709 267.491 228.706 267.491 228.703 267.491C228.7 267.491 228.697 267.491 228.694 267.491C228.691 267.491 228.688 267.491 228.685 267.491C228.682 267.491 228.679 267.491 228.676 267.491C228.673 267.491 228.67 267.491 228.667 267.491C228.664 267.491 228.661 267.491 228.658 267.491C228.655 267.491 228.652 267.491 228.649 267.491C228.646 267.491 228.643 267.491 228.64 267.491C228.637 267.491 228.634 267.491 228.631 267.491C228.628 267.491 228.625 267.491 228.622 267.491C228.619 267.491 228.616 267.491 228.613 267.491C228.61 267.491 228.607 267.491 228.604 267.491C228.601 267.491 228.598 267.491 228.595 267.491C228.592 267.491 228.589 267.491 228.586 267.491C228.583 267.491 228.58 267.491 228.577 267.491C228.574 267.491 228.571 267.491 228.568 267.491C228.565 267.491 228.562 267.491 228.559 267.491C228.556 267.491 228.553 267.491 228.55 267.491C228.547 267.491 228.544 267.491 228.541 267.491C228.538 267.491 228.535 267.491 228.532 267.491C228.529 267.491 228.526 267.491 228.523 267.491C228.52 267.491 228.517 267.491 228.514 267.491C228.511 267.491 228.508 267.491 228.505 267.491C228.502 267.491 228.499 267.491 228.496 267.491C228.493 267.491 228.49 267.491 228.487 267.491C228.484 267.491 228.481 267.491 228.479 267.491C228.476 267.491 228.473 267.491 228.47 267.491C228.467 267.491 228.464 267.491 228.461 267.491C228.458 267.491 228.455 267.491 228.452 267.491C228.449 267.491 228.446 267.491 228.443 267.491C228.44 267.491 228.437 267.491 228.434 267.491C228.431 267.491 228.428 267.491 228.425 267.491C228.422 267.491 228.419 267.491 228.416 267.491C228.413 267.491 228.41 267.491 228.407 267.491C228.404 267.491 228.401 267.491 228.398 267.491C228.395 267.491 228.392 267.491 228.389 267.491C228.386 267.491 228.383 267.491 228.38 267.491C228.377 267.491 228.374 267.491 228.371 267.491C228.368 267.491 228.365 267.491 228.362 267.491C228.359 267.491 228.356 267.491 228.353 267.491C228.35 267.491 228.347 267.491 228.344 267.491C228.341 267.491 228.338 267.491 228.335 267.491C228.332 267.491 228.329 267.491 228.326 267.491C228.323 267.491 228.32 267.491 228.317 267.491C228.314 267.491 228.311 267.491 228.308 267.491C228.305 267.491 228.302 267.491 228.299 267.491C228.296 267.491 228.293 267.491 228.29 267.491C228.287 267.491 228.284 267.491 228.281 267.491C228.278 267.491 228.275 267.491 228.272 267.491C228.269 267.491 228.266 267.491 228.263 267.491C228.26 267.491 228.257 267.491 228.254 267.491C228.251 267.491 228.248 267.491 228.245 267.491C228.242 267.491 228.239 267.491 228.236 267.491C228.233 267.491 228.23 267.491 228.227 267.491C228.224 267.491 228.221 267.491 228.218 267.491C228.215 267.491 228.212 267.491 228.209 267.491C228.206 267.491 228.203 267.491 228.201 267.491C228.198 267.491 228.195 267.491 228.192 267.491C228.189 267.491 228.186 267.491 228.183 267.491C228.18 267.491 228.177 267.491 228.174 267.491C228.171 267.491 228.168 267.491 228.165 267.491C228.162 267.491 228.159 267.491 228.156 267.491C228.153 267.491 228.15 267.491 228.147 267.491C228.144 267.491 228.141 267.491 228.138 267.491C228.135 267.491 228.132 267.491 228.129 267.491C228.126 267.491 228.123 267.491 228.12 267.491C228.117 267.491 228.114 267.491 228.111 267.491C228.108 267.491 228.105 267.491 228.102 267.491C228.099 267.491 228.096 267.491 228.093 267.491C228.09 267.491 228.087 267.491 228.084 267.491C228.081 267.491 228.078 267.491 228.075 267.491C228.072 267.491 228.069 267.491 228.066 267.491C228.063 267.491 228.06 267.491 228.057 267.491C228.054 267.491 228.051 267.491 228.048 267.491C228.045 267.491 228.042 267.491 228.039 267.491C228.036 267.491 228.033 267.491 228.03 267.491C228.027 267.491 228.024 267.491 228.021 267.491C228.018 267.491 228.015 267.491 228.012 267.491C228.009 267.491 228.006 267.491 228.003 267.491C228 267.491 227.997 267.491 227.994 267.491C227.991 267.491 227.988 267.491 227.985 267.491C227.982 267.491 227.979 267.491 227.976 267.491C227.973 267.491 227.97 267.491 227.967 267.491C227.964 267.491 227.961 267.491 227.958 267.491C227.955 267.491 227.952 267.491 227.949 267.491C227.946 267.491 227.943 267.491 227.94 267.491C227.937 267.491 227.934 267.491 227.931 267.491C227.928 267.491 227.925 267.491 227.922 267.491C227.919 267.491 227.916 267.491 227.913 267.491C227.91 267.491 227.907 267.491 227.904 267.491C227.901 267.491 227.898 267.491 227.895 267.491C227.892 267.491 227.889 267.491 227.886 267.491C227.884 267.491 227.881 267.491 227.878 267.491C227.875 267.491 227.872 267.491 227.869 267.491C227.866 267.491 227.863 267.491 227.86 267.491C227.857 267.491 227.854 267.491 227.851 267.491C227.848 267.491 227.845 267.491 227.842 267.491C227.839 267.491 227.836 267.491 227.833 267.491C227.83 267.491 227.827 267.491 227.824 267.491C227.821 267.491 227.818 267.491 227.815 267.491C227.812 267.491 227.809 267.491 227.806 267.491C227.803 267.491 227.8 267.491 227.797 267.491C227.794 267.491 227.791 267.491 227.788 267.491C227.785 267.491 227.782 267.491 227.779 267.491C227.776 267.491 227.773 267.491 227.77 267.491C227.767 267.491 227.764 267.491 227.761 267.491C227.758 267.491 227.755 267.491 227.752 267.491C227.749 267.491 227.746 267.491 227.743 267.491C227.74 267.491 227.737 267.491 227.734 267.491C227.731 267.491 227.728 267.491 227.725 267.491C227.722 267.491 227.719 267.491 227.716 267.491C227.713 267.491 227.71 267.491 227.707 267.491C227.704 267.491 227.701 267.491 227.698 267.491C227.695 267.491 227.692 267.491 227.689 267.491C227.686 267.491 227.683 267.491 227.68 267.491C227.677 267.491 227.674 267.491 227.671 267.491C227.668 267.491 227.665 267.491 227.662 267.491C227.659 267.491 227.656 267.491 227.653 267.491C227.65 267.491 227.647 267.491 227.644 267.491C227.641 267.491 227.638 267.491 227.635 267.491C227.632 267.491 227.629 267.491 227.626 267.491C227.623 267.491 227.62 267.491 227.617 267.491C227.614 267.491 227.611 267.491 227.608 267.491C227.605 267.491 227.602 267.491 227.599 267.491C227.596 267.491 227.593 267.491 227.59 267.491C227.587 267.491 227.584 267.491 227.581 267.491C227.578 267.491 227.575 267.491 227.572 267.491C227.569 267.491 227.566 267.491 227.563 267.491C227.56 267.491 227.557 267.491 227.554 267.491C227.551 267.491 227.548 267.491 227.545 267.491C227.542 267.491 227.539 267.491 227.536 267.491C227.533 267.491 227.53 267.491 227.527 267.491C227.524 267.491 227.521 267.491 227.518 267.491C227.515 267.491 227.512 267.491 227.509 267.491C227.506 267.491 227.503 267.491 227.5 267.491C227.497 267.491 227.494 267.491 227.491 267.491C227.488 267.491 227.485 267.491 227.482 267.491C227.479 267.491 227.476 267.491 227.473 267.491C227.47 267.491 227.467 267.491 227.464 267.491C227.461 267.491 227.458 267.491 227.455 267.491C227.452 267.491 227.449 267.491 227.446 267.491C227.443 267.491 227.44 267.491 227.438 267.491C227.435 267.491 227.432 267.491 227.429 267.491C227.426 267.491 227.423 267.491 227.42 267.491C227.417 267.491 227.414 267.491 227.411 267.491C227.408 267.491 227.405 267.491 227.402 267.491C227.399 267.491 227.396 267.491 227.393 267.491C227.39 267.491 227.387 267.491 227.384 267.491C227.381 267.491 227.378 267.491 227.375 267.491C227.372 267.491 227.369 267.491 227.366 267.491C227.363 267.491 227.36 267.491 227.357 267.491C227.354 267.491 227.351 267.491 227.348 267.491C227.345 267.491 227.342 267.491 227.339 267.491C227.336 267.491 227.333 267.491 227.33 267.491C227.327 267.491 227.324 267.491 227.321 267.491C227.318 267.491 227.315 267.491 227.312 267.491C227.309 267.491 227.306 267.491 227.303 267.491C227.3 267.491 227.297 267.491 227.294 267.491C227.291 267.491 227.288 267.491 227.285 267.491C227.282 267.491 227.279 267.491 227.276 267.491C227.273 267.491 227.27 267.491 227.267 267.491C227.264 267.491 227.261 267.491 227.258 267.491C227.255 267.491 227.252 267.491 227.249 267.491C227.246 267.491 227.243 267.491 227.24 267.491C227.237 267.491 227.234 267.491 227.231 267.491C227.228 267.491 227.225 267.491 227.222 267.491C227.219 267.491 227.216 267.491 227.213 267.491C227.21 267.491 227.207 267.491 227.204 267.491C227.201 267.491 227.198 267.491 227.195 267.491C227.192 267.491 227.189 267.491 227.186 267.491C227.183 267.491 227.18 267.491 227.177 267.491C227.174 267.491 227.171 267.491 227.168 267.491C227.165 267.491 227.162 267.491 227.159 267.491C227.156 267.491 227.153 267.491 227.15 267.491C227.147 267.491 227.144 267.491 227.141 267.491C227.138 267.491 227.135 267.491 227.132 267.491C227.129 267.491 227.126 267.491 227.123 267.491C227.12 267.491 227.117 267.491 227.114 267.491C227.111 267.491 227.108 267.491 227.105 267.491C227.102 267.491 227.099 267.491 227.096 267.491C227.093 267.491 227.09 267.491 227.087 267.491C227.084 267.491 227.081 267.491 227.078 267.491C227.075 267.491 227.072 267.491 227.069 267.491C227.066 267.491 227.063 267.491 227.06 267.491C227.057 267.491 227.054 267.491 227.051 267.491C227.048 267.491 227.045 267.491 227.042 267.491C227.039 267.491 227.036 267.491 227.033 267.491C227.03 267.491 227.027 267.491 227.024 267.491C227.021 267.491 227.018 267.491 227.015 267.491C227.012 267.491 227.009 267.491 227.006 267.491C227.003 267.491 227 267.491 226.997 267.491C226.994 267.491 226.991 267.491 226.988 267.491C226.985 267.491 226.982 267.491 226.979 267.491C226.976 267.491 226.973 267.491 226.97 267.491C226.967 267.491 226.964 267.491 226.961 267.491C226.958 267.491 226.955 267.491 226.952 267.491C226.949 267.491 226.946 267.491 226.943 267.491C226.94 267.491 226.937 267.491 226.934 267.491C226.931 267.491 226.928 267.491 226.925 267.491C226.922 267.491 226.919 267.491 226.916 267.491C226.913 267.491 226.91 267.491 226.907 267.491C226.904 267.491 226.901 267.491 226.898 267.491C226.895 267.491 226.892 267.491 226.889 267.491C226.886 267.491 226.883 267.491 226.88 267.491C226.877 267.491 226.874 267.491 226.871 267.491C226.868 267.491 226.865 267.491 226.862 267.491C226.859 267.491 226.856 267.491 226.853 267.491C226.85 267.491 226.847 267.491 226.844 267.491C226.841 267.491 226.838 267.491 226.835 267.491C226.832 267.491 226.829 267.491 226.826 267.491C226.823 267.491 226.82 267.491 226.817 267.491C226.814 267.491 226.811 267.491 226.808 267.491C226.805 267.491 226.802 267.491 226.799 267.491C226.796 267.491 226.793 267.491 226.79 267.491C226.787 267.491 226.784 267.491 226.781 267.491C226.778 267.491 226.775 267.491 226.772 267.491C226.769 267.491 226.766 267.491 226.763 267.491C226.76 267.491 226.757 267.491 226.754 267.491C226.751 267.491 226.748 267.491 226.745 267.491C226.742 267.491 226.739 267.491 226.736 267.491C226.733 267.491 226.73 267.491 226.727 267.491C226.724 267.491 226.721 267.491 226.718 267.491C226.715 267.491 226.712 267.491 226.709 267.491C226.706 267.491 226.703 267.491 226.7 267.491C226.697 267.491 226.694 267.491 226.691 267.491C226.688 267.491 226.685 267.491 226.682 267.491C226.679 267.491 226.676 267.491 226.673 267.491C226.67 267.491 226.666 267.491 226.663 267.491C226.66 267.491 226.657 267.491 226.654 267.491C226.651 267.491 226.648 267.491 226.645 267.491C226.642 267.491 226.639 267.491 226.636 267.491C226.633 267.491 226.63 267.491 226.627 267.491C226.624 267.491 226.621 267.491 226.618 267.491C226.615 267.491 226.612 267.491 226.609 267.491C226.606 267.491 226.603 267.491 226.6 267.491C226.597 267.491 226.594 267.491 226.591 267.491C226.588 267.491 226.585 267.491 226.582 267.491C226.579 267.491 226.576 267.491 226.573 267.491C226.57 267.491 226.567 267.491 226.564 267.491C226.561 267.491 226.558 267.491 226.555 267.491C226.552 267.491 226.549 267.491 226.546 267.491C226.543 267.491 226.54 267.491 226.537 267.491C226.534 267.491 226.531 267.491 226.528 267.491C226.525 267.491 226.522 267.491 226.519 267.491C226.516 267.491 226.513 267.491 226.51 267.491C226.507 267.491 226.504 267.491 226.501 267.491C226.498 267.491 226.495 267.491 226.492 267.491C226.489 267.491 226.486 267.491 226.483 267.491C226.48 267.491 226.477 267.491 226.474 267.491C226.471 267.491 226.468 267.491 226.465 267.491C226.462 267.491 226.459 267.491 226.456 267.491C226.453 267.491 226.45 267.491 226.447 267.491C226.444 267.491 226.441 267.491 226.438 267.491C226.435 267.491 226.432 267.491 226.429 267.491C226.426 267.491 226.423 267.491 226.42 267.491C226.417 267.491 226.414 267.491 226.411 267.491C226.408 267.491 226.405 267.491 226.402 267.491C226.399 267.491 226.396 267.491 226.393 267.491C226.39 267.491 226.387 267.491 226.384 267.491C226.381 267.491 226.378 267.491 226.375 267.491C226.372 267.491 226.369 267.491 226.366 267.491C226.363 267.491 226.36 267.491 226.357 267.491C226.354 267.491 226.351 267.491 226.348 267.491C226.345 267.491 226.342 267.491 226.339 267.491C226.336 267.491 226.333 267.491 226.33 267.491C226.327 267.491 226.324 267.491 226.321 267.491C226.318 267.491 226.315 267.491 226.312 267.491C226.308 267.491 226.305 267.491 226.302 267.491C226.299 267.491 226.296 267.491 226.293 267.491C226.29 267.491 226.287 267.491 226.284 267.491C226.281 267.491 226.278 267.491 226.275 267.491C226.272 267.491 226.269 267.491 226.266 267.491C226.263 267.491 226.26 267.491 226.257 267.491C226.254 267.491 226.251 267.491 226.248 267.491C226.245 267.491 226.242 267.491 226.239 267.491C226.236 267.491 226.233 267.491 226.23 267.491C226.227 267.491 226.224 267.491 226.221 267.491C226.218 267.491 226.215 267.491 226.212 267.491C226.209 267.491 226.206 267.491 226.203 267.491C226.2 267.491 226.197 267.491 226.194 267.491C226.191 267.491 226.188 267.491 226.185 267.491C226.182 267.491 226.179 267.491 226.176 267.491C226.173 267.491 226.17 267.491 226.167 267.491C226.164 267.491 226.161 267.491 226.158 267.491C226.155 267.491 226.152 267.491 226.149 267.491C226.146 267.491 226.143 267.491 226.14 267.491C226.137 267.491 226.134 267.491 226.131 267.491C226.128 267.491 226.125 267.491 226.122 267.491C226.119 267.491 226.116 267.491 226.113 267.491C226.11 267.491 226.107 267.491 226.104 267.491C226.101 267.491 226.098 267.491 226.095 267.491C226.092 267.491 226.088 267.491 226.085 267.491C226.082 267.491 226.079 267.491 226.076 267.491C226.073 267.491 226.07 267.491 226.067 267.491C226.064 267.491 226.061 267.491 226.058 267.491C226.055 267.491 226.052 267.491 226.049 267.491C226.046 267.491 226.043 267.491 226.04 267.491C226.037 267.491 226.034 267.491 226.031 267.491C226.028 267.491 226.025 267.491 226.022 267.491C226.019 267.491 226.016 267.491 226.013 267.491C226.01 267.491 226.007 267.491 226.004 267.491C226.001 267.491 225.998 267.491 225.995 267.491C225.992 267.491 225.989 267.491 225.986 267.491C225.983 267.491 225.98 267.491 225.977 267.491C225.974 267.491 225.971 267.491 225.968 267.491C225.965 267.491 225.962 267.491 225.959 267.491C225.956 267.491 225.953 267.491 225.95 267.491C225.947 267.491 225.944 267.491 225.941 267.491C225.938 267.491 225.935 267.491 225.932 267.491C225.929 267.491 225.926 267.491 225.923 267.491C225.919 267.491 225.916 267.491 225.913 267.491C225.91 267.491 225.907 267.491 225.904 267.491C225.901 267.491 225.898 267.491 225.895 267.491C225.892 267.491 225.889 267.491 225.886 267.491C225.883 267.491 225.88 267.491 225.877 267.491C225.874 267.491 225.871 267.491 225.868 267.491C225.865 267.491 225.862 267.491 225.859 267.491C225.856 267.491 225.853 267.491 225.85 267.491C225.847 267.491 225.844 267.491 225.841 267.491C225.838 267.491 225.835 267.491 225.832 267.491C225.829 267.491 225.826 267.491 225.823 267.491C225.82 267.491 225.817 267.491 225.814 267.491C225.811 267.491 225.808 267.491 225.805 267.491C225.802 267.491 225.799 267.491 225.796 267.491C225.793 267.491 225.79 267.491 225.787 267.491C225.784 267.491 225.781 267.491 225.778 267.491C225.774 267.491 225.771 267.491 225.768 267.491C225.765 267.491 225.762 267.491 225.759 267.491C225.756 267.491 225.753 267.491 225.75 267.491C225.747 267.491 225.744 267.491 225.741 267.491C225.738 267.491 225.735 267.491 225.732 267.491C225.729 267.491 225.726 267.491 225.723 267.491C225.72 267.491 225.717 267.491 225.714 267.491C225.711 267.491 225.708 267.491 225.705 267.491C225.702 267.491 225.699 267.491 225.696 267.491C225.693 267.491 225.69 267.491 225.687 267.491C225.684 267.491 225.681 267.491 225.678 267.491C225.675 267.491 225.672 267.491 225.669 267.491C225.666 267.491 225.663 267.491 225.66 267.491C225.657 267.491 225.654 267.491 225.65 267.491C225.647 267.491 225.644 267.491 225.641 267.491C225.638 267.491 225.635 267.491 225.632 267.491C225.629 267.491 225.626 267.491 225.623 267.491C225.62 267.491 225.617 267.491 225.614 267.491C225.611 267.491 225.608 267.491 225.605 267.491C225.602 267.491 225.599 267.491 225.596 267.491C225.593 267.491 225.59 267.491 225.587 267.491C225.584 267.491 225.581 267.491 225.578 267.491C225.575 267.491 225.572 267.491 225.569 267.491C225.566 267.491 225.563 267.491 225.56 267.491C225.557 267.491 225.554 267.491 225.551 267.491C225.548 267.491 225.545 267.491 225.542 267.491C225.538 267.491 225.535 267.491 225.532 267.491C225.529 267.491 225.526 267.491 225.523 267.491C225.52 267.491 225.517 267.491 225.514 267.491C225.511 267.491 225.508 267.491 225.505 267.491C225.502 267.491 225.499 267.491 225.496 267.491C225.493 267.491 225.49 267.491 225.487 267.491C225.484 267.491 225.481 267.491 225.478 267.491C225.475 267.491 225.472 267.491 225.469 267.491C225.466 267.491 225.463 267.491 225.46 267.491C225.457 267.491 225.454 267.491 225.451 267.491C225.448 267.491 225.445 267.491 225.442 267.491C225.439 267.491 225.435 267.491 225.432 267.491C225.429 267.491 225.426 267.491 225.423 267.491C225.42 267.491 225.417 267.491 225.414 267.491C225.411 267.491 225.408 267.491 225.405 267.491C225.402 267.491 225.399 267.491 225.396 267.491C225.393 267.491 225.39 267.491 225.387 267.491C225.384 267.491 225.381 267.491 225.378 267.491C225.375 267.491 225.372 267.491 225.369 267.491C225.366 267.491 225.363 267.491 225.36 267.491C225.357 267.491 225.354 267.491 225.351 267.491C225.348 267.491 225.345 267.491 225.341 267.491C225.338 267.491 225.335 267.491 225.332 267.491C225.329 267.491 225.326 267.491 225.323 267.491C225.32 267.491 225.317 267.491 225.314 267.491C225.311 267.491 225.308 267.491 225.305 267.491C225.302 267.491 225.299 267.491 225.296 267.491C225.293 267.491 225.29 267.491 225.287 267.491C225.284 267.491 225.281 267.491 225.278 267.491C225.275 267.491 225.272 267.491 225.269 267.491C225.266 267.491 225.263 267.491 225.26 267.491C225.257 267.491 225.254 267.491 225.25 267.491C225.247 267.491 225.244 267.491 225.241 267.491C225.238 267.491 225.235 267.491 225.232 267.491C225.229 267.491 225.226 267.491 225.223 267.491C225.22 267.491 225.217 267.491 225.214 267.491C225.211 267.491 225.208 267.491 225.205 267.491C225.202 267.491 225.199 267.491 225.196 267.491C225.193 267.491 225.19 267.491 225.187 267.491C225.184 267.491 225.181 267.491 225.178 267.491C225.175 267.491 225.172 267.491 225.168 267.491C225.165 267.491 225.162 267.491 225.159 267.491C225.156 267.491 225.153 267.491 225.15 267.491C225.147 267.491 225.144 267.491 225.141 267.491C225.138 267.491 225.135 267.491 225.132 267.491C225.129 267.491 225.126 267.491 225.123 267.491C225.12 267.491 225.117 267.491 225.114 267.491C225.111 267.491 225.108 267.491 225.105 267.491C225.102 267.491 225.099 267.491 225.096 267.491C225.093 267.491 225.089 267.491 225.086 267.491C225.083 267.491 225.08 267.491 225.077 267.491C225.074 267.491 225.071 267.491 225.068 267.491C225.065 267.491 225.062 267.491 225.059 267.491C225.056 267.491 225.053 267.491 225.05 267.491C225.047 267.491 225.044 267.491 225.041 267.491C225.038 267.491 225.035 267.491 225.032 267.491C225.029 267.491 225.026 267.491 225.023 267.491C225.02 267.491 225.016 267.491 225.013 267.491C225.01 267.491 225.007 267.491 225.004 267.491C225.001 267.491 224.998 267.491 224.995 267.491C224.992 267.491 224.989 267.491 224.986 267.491C224.983 267.491 224.98 267.491 224.977 267.491C224.974 267.491 224.971 267.491 224.968 267.491C224.965 267.491 224.962 267.491 224.959 267.491C224.956 267.491 224.953 267.491 224.95 267.491C224.946 267.491 224.943 267.491 224.94 267.491C224.937 267.491 224.934 267.491 224.931 267.491C224.928 267.491 224.925 267.491 224.922 267.491C224.919 267.491 224.916 267.491 224.913 267.491C224.91 267.491 224.907 267.491 224.904 267.491C224.901 267.491 224.898 267.491 224.895 267.491C224.892 267.491 224.889 267.491 224.886 267.491C224.883 267.491 224.88 267.491 224.876 267.491C224.873 267.491 224.87 267.491 224.867 267.491C224.864 267.491 224.861 267.491 224.858 267.491C224.855 267.491 224.852 267.491 224.849 267.491C224.846 267.491 224.843 267.491 224.84 267.491C224.837 267.491 224.834 267.491 224.831 267.491C224.828 267.491 224.825 267.491 224.822 267.491C224.819 267.491 224.816 267.491 224.812 267.491C224.809 267.491 224.806 267.491 224.803 267.491C224.8 267.491 224.797 267.491 224.794 267.491C224.791 267.491 224.788 267.491 224.785 267.491C224.782 267.491 224.779 267.491 224.776 267.491C224.773 267.491 224.77 267.491 224.767 267.491C224.764 267.491 224.761 267.491 224.758 267.491C224.755 267.491 224.751 267.491 224.748 267.491C224.745 267.491 224.742 267.491 224.739 267.491C224.736 267.491 224.733 267.491 224.73 267.491C224.727 267.491 224.724 267.491 224.721 267.491C224.718 267.491 224.715 267.491 224.712 267.491C224.709 267.491 224.706 267.491 224.703 267.491C224.7 267.491 224.697 267.491 224.694 267.491C224.69 267.491 224.687 267.491 224.684 267.491C224.681 267.491 224.678 267.491 224.675 267.491C224.672 267.491 224.669 267.491 224.666 267.491C224.663 267.491 224.66 267.491 224.657 267.491C224.654 267.491 224.651 267.491 224.648 267.491C224.645 267.491 224.642 267.491 224.639 267.491C224.636 267.491 224.632 267.491 224.629 267.491C224.626 267.491 224.623 267.491 224.62 267.491C224.617 267.491 224.614 267.491 224.611 267.491C224.608 267.491 224.605 267.491 224.602 267.491C224.599 267.491 224.596 267.491 224.593 267.491C224.59 267.491 224.587 267.491 224.584 267.491C224.581 267.491 224.578 267.491 224.574 267.491C224.571 267.491 224.568 267.491 224.565 267.491C224.562 267.491 224.559 267.491 224.556 267.491C224.553 267.491 224.55 267.491 224.547 267.491C224.544 267.491 224.541 267.491 224.538 267.491C224.535 267.491 224.532 267.491 224.529 267.491C224.526 267.491 224.523 267.491 224.519 267.491C224.516 267.491 224.513 267.491 224.51 267.491C224.507 267.491 224.504 267.491 224.501 267.491C224.498 267.491 224.495 267.491 224.492 267.491C224.489 267.491 224.486 267.491 224.483 267.491C224.48 267.491 224.477 267.491 224.474 267.491C224.471 267.491 224.467 267.491 224.464 267.491C224.461 267.491 224.458 267.491 224.455 267.491C224.452 267.491 224.449 267.491 224.446 267.491C224.443 267.491 224.44 267.491 224.437 267.491C224.434 267.491 224.431 267.491 224.428 267.491C224.425 267.491 224.422 267.491 224.419 267.491C224.415 267.491 224.412 267.491 224.409 267.491C224.406 267.491 224.403 267.491 224.4 267.491C224.397 267.491 224.394 267.491 224.391 267.491C224.388 267.491 224.385 267.491 224.382 267.491C224.379 267.491 224.376 267.491 224.373 267.491C224.37 267.491 224.366 267.491 224.363 267.491C224.36 267.491 224.357 267.491 224.354 267.491C224.351 267.491 224.348 267.491 224.345 267.491C224.342 267.491 224.339 267.491 224.336 267.491C224.333 267.491 224.33 267.491 224.327 267.491C224.324 267.491 224.321 267.491 224.317 267.491C224.314 267.491 224.311 267.491 224.308 267.491C224.305 267.491 224.302 267.491 224.299 267.491C224.296 267.491 224.293 267.491 224.29 267.491C224.287 267.491 224.284 267.491 224.281 267.491C224.278 267.491 224.275 267.491 224.272 267.491C224.268 267.491 224.265 267.491 224.262 267.491C224.259 267.491 224.256 267.491 224.253 267.491C224.25 267.491 224.247 267.491 224.244 267.491C224.241 267.491 224.238 267.491 224.235 267.491C224.232 267.491 224.229 267.491 224.226 267.491C224.222 267.491 224.219 267.491 224.216 267.491C224.213 267.491 224.21 267.491 224.207 267.491C224.204 267.491 224.201 267.491 224.198 267.491C224.195 267.491 224.192 267.491 224.189 267.491C224.186 267.491 224.183 267.491 224.18 267.491C224.176 267.491 224.173 267.491 224.17 267.491C224.167 267.491 224.164 267.491 224.161 267.491C224.158 267.491 224.155 267.491 224.152 267.491C224.149 267.491 224.146 267.491 224.143 267.491V268.491ZM228.774 268.491L227.794 268.688C228.4 271.709 230.028 274.429 232.405 276.391L233.041 275.62L233.678 274.848C231.656 273.179 230.27 270.865 229.755 268.294L228.774 268.491ZM233.041 275.62L232.405 276.391C234.781 278.352 237.761 279.435 240.843 279.457L240.85 278.457L240.857 277.457C238.235 277.439 235.7 276.517 233.678 274.848L233.041 275.62ZM240.85 278.457V279.457H249.369V278.457V277.457H240.85V278.457ZM249.369 278.457L249.363 279.457C251.546 279.47 253.699 278.936 255.623 277.904L255.15 277.022L254.677 276.141C253.047 277.016 251.224 277.468 249.375 277.457L249.369 278.457ZM255.15 277.022L255.623 277.904C257.547 276.871 259.182 275.373 260.378 273.546L259.542 272.999L258.705 272.451C257.692 273.998 256.307 275.267 254.677 276.141L255.15 277.022ZM259.542 272.999L259.299 273.969C310.033 286.673 330.863 298.901 370.72 320.607L371.198 319.729L371.676 318.851C331.802 297.135 310.782 284.799 259.785 272.029L259.542 272.999ZM371.198 319.729L370.722 320.608C373.519 322.123 376.661 322.885 379.841 322.821L379.821 321.821L379.801 320.821C376.967 320.879 374.167 320.199 371.674 318.849L371.198 319.729ZM379.821 321.821L379.841 322.821C383.021 322.756 386.13 321.867 388.863 320.24L388.352 319.381L387.841 318.522C385.405 319.971 382.634 320.764 379.801 320.821L379.821 321.821ZM388.352 319.381L388.863 320.24C391.597 318.614 393.861 316.305 395.434 313.541L394.565 313.046L393.695 312.551C392.294 315.015 390.276 317.072 387.841 318.522L388.352 319.381ZM394.565 313.046L395.434 313.541C397.007 310.776 397.835 307.651 397.838 304.47L396.838 304.469L395.838 304.468C395.836 307.303 395.097 310.088 393.695 312.551L394.565 313.046ZM396.838 304.469H397.838V242.438H396.838H395.838V304.469H396.838ZM396.838 242.438L397.135 243.393L407.639 240.126L407.342 239.171L407.045 238.216L396.541 241.483L396.838 242.438ZM407.342 239.171L407.604 240.136C411.013 239.209 414.024 237.189 416.175 234.386L415.381 233.777L414.588 233.168C412.704 235.624 410.066 237.394 407.079 238.206L407.342 239.171ZM415.381 233.777L416.175 234.386C418.325 231.582 419.496 228.151 419.507 224.617L418.507 224.614L417.507 224.611C417.497 227.706 416.472 230.712 414.588 233.168L415.381 233.777ZM418.507 224.614H419.507V196.948H418.507H417.507V224.614H418.507ZM418.507 196.948L419.507 196.951C419.517 193.488 418.412 190.114 416.355 187.327L415.551 187.921L414.746 188.514C416.547 190.956 417.515 193.912 417.507 196.946L418.507 196.948ZM415.551 187.921L416.355 187.327C414.299 184.54 411.401 182.489 408.089 181.477L407.797 182.433L407.504 183.389C410.406 184.276 412.945 186.073 414.746 188.514L415.551 187.921ZM143.998 235.614L144.389 234.694L127.309 227.457L126.919 228.377L126.529 229.298L143.608 236.535L143.998 235.614ZM126.919 228.377L127.329 227.465C126.788 227.222 126.328 226.831 126 226.338L125.167 226.89L124.333 227.443C124.87 228.252 125.624 228.892 126.509 229.29L126.919 228.377ZM125.167 226.89L126 226.338C125.673 225.844 125.492 225.267 125.479 224.675L124.479 224.697L123.479 224.719C123.501 225.689 123.797 226.634 124.333 227.443L125.167 226.89ZM124.479 224.697H125.479V196.99H124.479H123.479V224.697H124.479ZM124.479 196.99L125.479 197.012C125.492 196.419 125.673 195.843 126 195.349L125.167 194.796L124.333 194.244C123.797 195.053 123.501 195.997 123.479 196.967L124.479 196.99ZM125.167 194.796L126 195.349C126.328 194.855 126.788 194.464 127.329 194.221L126.919 193.309L126.509 192.397C125.624 192.795 124.87 193.435 124.333 194.244L125.167 194.796ZM126.919 193.309L127.315 194.227L144.394 186.866L143.998 185.948L143.603 185.03L126.523 192.391L126.919 193.309ZM143.998 185.948H142.998V235.614H143.998H144.998V185.948H143.998ZM183.45 161.466V162.466H203.466V161.466V160.466H183.45V161.466ZM203.466 161.466H202.466V174.906H203.466H204.466V161.466H203.466ZM203.466 174.906V173.906H183.45V174.906V175.906H203.466V174.906ZM183.45 174.906H184.45V161.466H183.45H182.45V174.906H183.45ZM183.45 183.177V184.177H203.466V183.177V182.177H183.45V183.177ZM203.466 183.177H202.466V196.08H203.466H204.466V183.177H203.466ZM203.466 196.08V195.08H183.45V196.08V197.08H203.466V196.08ZM183.45 196.08H184.45V183.177H183.45H182.45V196.08H183.45ZM183.45 204.351V205.351H203.466V204.351V203.351H183.45V204.351ZM203.466 204.351H202.466V217.212H203.466H204.466V204.351H203.466ZM203.466 217.212V216.212H183.45V217.212V218.212H203.466V217.212ZM183.45 217.212H184.45V204.351H183.45H182.45V217.212H183.45ZM183.45 225.483V226.483H203.466V225.483V224.483H183.45V225.483ZM203.466 225.483H202.466V238.385H203.466H204.466V225.483H203.466ZM203.466 238.385V237.385H183.45V238.385V239.385H203.466V238.385ZM183.45 238.385H184.45V225.483H183.45H182.45V238.385H183.45ZM183.45 246.656V247.656H203.466V246.656V245.656H183.45V246.656ZM203.466 246.656H202.466V260.096H203.466H204.466V246.656H203.466ZM203.466 260.096V259.096H183.45V260.096V261.096H203.466V260.096ZM183.45 260.096H184.45V246.656H183.45H182.45V260.096H183.45ZM175.179 260.096V259.096H170.382V260.096V261.096H175.179V260.096ZM170.382 260.096L170.385 259.096C165.837 259.086 161.48 257.275 158.264 254.06L157.557 254.767L156.85 255.474C160.439 259.063 165.304 261.085 170.38 261.096L170.382 260.096ZM157.557 254.767L158.264 254.06C155.049 250.844 153.238 246.486 153.228 241.939L152.228 241.942L151.228 241.944C151.239 247.02 153.261 251.885 156.85 255.474L157.557 254.767ZM152.228 241.942H153.228V179.621H152.228H151.228V241.942H152.228ZM152.228 179.621L153.228 179.623C153.238 175.076 155.049 170.718 158.264 167.503L157.557 166.796L156.85 166.089C153.261 169.678 151.239 174.543 151.228 179.619L152.228 179.621ZM157.557 166.796L158.264 167.503C161.48 164.288 165.837 162.477 170.385 162.466L170.382 161.466L170.38 160.466C165.304 160.478 160.439 162.499 156.85 166.089L157.557 166.796ZM170.382 161.466V162.466H175.138V161.466V160.466H170.382V161.466ZM175.138 161.466L174.138 161.467L174.179 260.096L175.179 260.096L176.179 260.096L176.138 161.466L175.138 161.466ZM228.94 342.804L228.188 343.464C229.587 345.056 230.376 347.091 230.417 349.209L231.417 349.19L232.416 349.17C232.366 346.58 231.401 344.091 229.691 342.144L228.94 342.804ZM231.417 349.19L230.417 349.209C230.458 351.327 229.747 353.391 228.412 355.035L229.188 355.666L229.964 356.296C231.598 354.285 232.466 351.761 232.416 349.17L231.417 349.19ZM229.188 355.666L228.545 356.431C229.582 357.303 230.375 357.955 230.914 358.391C231.183 358.609 231.392 358.775 231.537 358.887C231.609 358.943 231.671 358.99 231.719 359.025C231.741 359.041 231.772 359.063 231.804 359.084C231.818 359.093 231.851 359.114 231.893 359.137C231.912 359.147 231.957 359.17 232.018 359.193C232.048 359.204 232.103 359.223 232.174 359.237C232.231 359.248 232.379 359.273 232.563 359.236C232.778 359.193 233.089 359.049 233.263 358.701C233.41 358.404 233.366 358.136 233.343 358.033C233.297 357.834 233.2 357.699 233.192 357.687C233.143 357.616 233.094 357.565 233.086 357.557C233.054 357.523 233.022 357.493 233.003 357.477C232.96 357.437 232.903 357.387 232.837 357.33C232.702 357.215 232.501 357.047 232.236 356.829C231.703 356.392 230.897 355.742 229.808 354.881L229.188 355.666L228.568 356.45C229.65 357.305 230.446 357.948 230.967 358.375C231.228 358.589 231.416 358.747 231.536 358.849C231.597 358.902 231.633 358.934 231.65 358.949C231.662 358.96 231.652 358.951 231.633 358.931C231.632 358.93 231.587 358.885 231.541 358.817C231.534 358.807 231.437 358.674 231.392 358.476C231.369 358.374 231.325 358.106 231.472 357.81C231.646 357.461 231.956 357.318 232.171 357.275C232.355 357.238 232.502 357.263 232.559 357.274C232.629 357.288 232.683 357.306 232.712 357.317C232.771 357.339 232.814 357.361 232.83 357.37C232.866 357.389 232.891 357.406 232.895 357.408C232.908 357.416 232.91 357.418 232.897 357.408C232.873 357.391 232.829 357.358 232.763 357.307C232.633 357.206 232.436 357.05 232.172 356.836C231.645 356.41 230.861 355.765 229.831 354.9L229.188 355.666ZM229.188 355.666L228.413 355.034C227.608 356.021 226.602 356.823 225.46 357.387L225.903 358.283L226.346 359.18C227.744 358.489 228.978 357.506 229.963 356.297L229.188 355.666ZM225.903 358.283L225.46 357.387C224.319 357.951 223.069 358.262 221.797 358.301L221.827 359.301L221.858 360.3C223.417 360.253 224.947 359.871 226.346 359.18L225.903 358.283ZM221.827 359.301L221.797 358.301C220.524 358.34 219.258 358.105 218.085 357.612L217.697 358.533L217.31 359.455C218.748 360.06 220.299 360.348 221.858 360.3L221.827 359.301ZM217.697 358.533L218.085 357.612C216.911 357.118 215.857 356.379 214.994 355.443L214.259 356.12L213.524 356.798C214.581 357.945 215.872 358.851 217.31 359.455L217.697 358.533ZM214.259 356.12L214.998 355.447C199.015 337.899 189.671 315.315 188.585 291.604L187.586 291.649L186.587 291.695C187.694 315.872 197.222 338.901 213.52 356.794L214.259 356.12ZM187.586 291.649V292.649H207.601V291.649V290.649H187.586V291.649ZM207.601 291.649L206.603 291.703C207.64 310.88 215.218 329.123 228.073 343.391L228.816 342.722L229.559 342.052C217.01 328.124 209.612 310.316 208.6 291.595L207.601 291.649ZM228.816 342.722L228.261 343.554L228.385 343.636L228.94 342.804L229.494 341.972L229.37 341.89L228.816 342.722ZM216.161 281.435L215.161 281.435C215.161 281.671 215.069 281.898 214.904 282.066L215.619 282.766L216.334 283.465C216.864 282.922 217.162 282.194 217.161 281.435L216.161 281.435ZM215.619 282.766L214.904 282.066C214.739 282.235 214.515 282.332 214.279 282.337L214.3 283.337L214.322 284.337C215.081 284.32 215.803 284.007 216.334 283.465L215.619 282.766ZM214.3 283.337V282.337H180.018V283.337V284.337H214.3V283.337ZM180.018 283.337L180.039 282.337C179.796 282.332 179.564 282.233 179.391 282.061L178.684 282.768L177.977 283.475C178.514 284.012 179.238 284.321 179.997 284.337L180.018 283.337ZM178.684 282.768L179.391 282.061C179.219 281.889 179.12 281.657 179.115 281.414L178.116 281.435L177.116 281.456C177.132 282.215 177.44 282.938 177.977 283.475L178.684 282.768ZM178.116 281.435H179.116V268.367H178.116H177.116V281.435H178.116ZM178.116 268.367V269.367H216.161V268.367V267.367H178.116V268.367ZM216.161 268.367H215.161V281.435H216.161H217.161V268.367H216.161ZM228.857 260.344L228.917 259.346C223.337 259.013 219.408 259.096 211.695 259.096V260.096V261.096C219.449 261.096 223.294 261.014 228.797 261.342L228.857 260.344ZM211.695 260.096H212.695V161.466H211.695H210.695V260.096H211.695ZM211.695 161.466V162.466C219.756 162.466 223.501 162.467 228.903 162.217L228.857 161.218L228.811 160.219C223.462 160.466 219.762 160.466 211.695 160.466V161.466ZM228.857 161.218H227.857V260.344H228.857H229.857V161.218H228.857ZM253.67 266.341H252.67C252.67 267.172 252.339 267.97 251.751 268.558L252.458 269.265L253.165 269.972C254.129 269.009 254.67 267.703 254.67 266.341H253.67ZM252.458 269.265L251.751 268.558C251.163 269.146 250.366 269.476 249.534 269.476V270.476V271.476C250.896 271.476 252.202 270.935 253.165 269.972L252.458 269.265ZM249.534 270.476V269.476H241.139V270.476V271.476H249.534V270.476ZM241.139 270.476V269.476C240.308 269.476 239.51 269.146 238.922 268.558L238.215 269.265L237.508 269.972C238.471 270.935 239.777 271.476 241.139 271.476V270.476ZM238.215 269.265L238.922 268.558C238.334 267.97 238.004 267.172 238.004 266.341H237.004H236.004C236.004 267.703 236.545 269.009 237.508 269.972L238.215 269.265ZM237.004 266.341H238.004V239.336H237.004H236.004V266.341H237.004ZM237.004 239.336V240.336H253.546V239.336V238.336H237.004V239.336ZM253.546 239.336L252.546 239.341L252.67 266.345L253.67 266.341L254.67 266.336L254.546 239.332L253.546 239.336ZM237.128 231.065H238.128V214.937H237.128H236.128V231.065H237.128ZM237.128 214.937V215.937H253.67V214.937V213.937H237.128V214.937ZM253.67 214.937H252.67V231.065H253.67H254.67V214.937H253.67ZM253.67 231.065V230.065H237.128V231.065V232.065H253.67V231.065ZM253.67 206.666V205.666H237.128V206.666V207.666H253.67V206.666ZM237.128 206.666H238.128V155.222H237.128H236.128V206.666H237.128ZM237.128 155.222H238.128C238.128 154.39 238.458 153.593 239.046 153.005L238.339 152.298L237.632 151.591C236.669 152.554 236.128 153.86 236.128 155.222H237.128ZM238.339 152.298L239.046 153.005C239.634 152.417 240.432 152.086 241.263 152.086V151.086V150.086C239.901 150.086 238.595 150.628 237.632 151.591L238.339 152.298ZM241.263 151.086V152.086H249.782V151.086V150.086H241.263V151.086ZM249.782 151.086V152.086C250.614 152.086 251.411 152.417 251.999 153.005L252.706 152.298L253.414 151.591C252.451 150.628 251.144 150.086 249.782 150.086V151.086ZM252.706 152.298L251.999 153.005C252.587 153.593 252.918 154.39 252.918 155.222H253.918H254.918C254.918 153.86 254.377 152.554 253.414 151.591L252.706 152.298ZM253.918 155.222L252.918 155.217L252.67 206.662L253.67 206.666L254.67 206.671L254.918 155.227L253.918 155.222ZM389.022 304.593L388.022 304.589C388.016 305.987 387.649 307.359 386.956 308.572L387.825 309.068L388.693 309.564C389.557 308.051 390.015 306.34 390.022 304.597L389.022 304.593ZM387.825 309.068L386.956 308.572C386.264 309.786 385.269 310.799 384.068 311.514L384.58 312.374L385.092 313.233C386.589 312.341 387.829 311.077 388.693 309.564L387.825 309.068ZM384.58 312.374L384.068 311.514C382.868 312.23 381.502 312.622 380.105 312.653L380.128 313.653L380.15 314.653C381.892 314.614 383.595 314.124 385.092 313.233L384.58 312.374ZM380.128 313.653L380.105 312.653C378.708 312.685 377.327 312.354 376.096 311.693L375.623 312.574L375.15 313.456C376.686 314.279 378.408 314.692 380.15 314.653L380.128 313.653ZM375.623 312.574L376.102 311.697L358.237 301.937L357.758 302.815L357.279 303.692L375.144 313.452L375.623 312.574ZM357.758 302.815H358.758V279.284H357.758H356.758V302.815H357.758ZM357.758 279.284H358.758C358.758 277.922 358.217 276.616 357.254 275.653L356.547 276.36L355.84 277.067C356.428 277.655 356.758 278.453 356.758 279.284H357.758ZM356.547 276.36L357.254 275.653C356.291 274.69 354.985 274.149 353.623 274.149V275.149V276.149C354.454 276.149 355.252 276.479 355.84 277.067L356.547 276.36ZM353.623 275.149V274.149C352.261 274.149 350.954 274.69 349.991 275.653L350.698 276.36L351.405 277.067C351.994 276.479 352.791 276.149 353.623 276.149V275.149ZM350.698 276.36L349.991 275.653C349.028 276.616 348.487 277.922 348.487 279.284H349.487H350.487C350.487 278.453 350.817 277.655 351.405 277.067L350.698 276.36ZM349.487 279.284H348.487V298.431H349.487H350.487V279.284H349.487ZM349.487 298.431L349.962 297.551C319.641 281.209 299.383 274.651 268.75 265.875L268.474 266.837L268.199 267.798C298.77 276.556 318.873 283.067 349.013 299.312L349.487 298.431ZM268.474 266.837L268.752 265.876C266.606 265.257 264.585 264.667 262.143 264.162L261.94 265.141L261.738 266.121C264.093 266.608 266.042 267.176 268.197 267.798L268.474 266.837ZM261.94 265.141H262.94V249.551H261.94H260.94V265.141H261.94ZM261.94 249.551L261.691 250.519C279.918 255.205 291.622 259.093 299.097 261.806C302.843 263.166 305.516 264.226 307.459 264.961C308.423 265.325 309.219 265.614 309.866 265.813C310.493 266.005 311.071 266.141 311.565 266.141V265.141V264.141C311.388 264.141 311.052 264.084 310.452 263.9C309.872 263.723 309.128 263.454 308.166 263.09C306.258 262.368 303.54 261.291 299.779 259.926C292.243 257.191 280.478 253.284 262.189 248.582L261.94 249.551ZM311.565 265.141L311.662 266.137C312.771 266.029 313.816 265.563 314.637 264.81L313.961 264.073L313.285 263.336C312.783 263.796 312.146 264.08 311.469 264.146L311.565 265.141ZM313.961 264.073L314.637 264.81C315.458 264.056 316.012 263.056 316.215 261.96L315.232 261.778L314.249 261.596C314.125 262.265 313.786 262.876 313.285 263.336L313.961 264.073ZM315.232 261.778L316.215 261.96C316.418 260.864 316.259 259.732 315.762 258.735L314.867 259.181L313.972 259.627C314.275 260.236 314.372 260.927 314.249 261.596L315.232 261.778ZM314.867 259.181L315.762 258.735C315.265 257.737 314.457 256.928 313.459 256.431L313.013 257.325L312.566 258.22C313.175 258.524 313.668 259.018 313.972 259.627L314.867 259.181ZM313.013 257.325L313.375 256.393C296.674 249.911 279.574 244.51 262.18 240.226L261.94 241.197L261.701 242.168C279.012 246.432 296.031 251.806 312.651 258.258L313.013 257.325ZM261.94 241.197H262.94V156.421H261.94H260.94V241.197H261.94ZM261.94 156.421L262.165 157.396C266.334 156.437 270.18 155.267 281.445 152.048L281.17 151.086L280.895 150.125C269.581 153.358 265.818 154.503 261.716 155.447L261.94 156.421ZM281.17 151.086L281.444 152.048C305.254 145.271 328.236 135.867 349.966 124.009L349.487 123.131L349.008 122.253C327.408 134.04 304.563 143.388 280.896 150.125L281.17 151.086ZM349.487 123.131H348.487V141.534H349.487H350.487V123.131H349.487ZM349.487 141.534H348.487C348.487 142.896 349.028 144.202 349.991 145.165L350.698 144.458L351.405 143.751C350.817 143.163 350.487 142.365 350.487 141.534H349.487ZM350.698 144.458L349.991 145.165C350.954 146.128 352.261 146.669 353.623 146.669V145.669V144.669C352.791 144.669 351.994 144.339 351.405 143.751L350.698 144.458ZM353.623 145.669V146.669C354.985 146.669 356.291 146.128 357.254 145.165L356.547 144.458L355.84 143.751C355.252 144.339 354.454 144.669 353.623 144.669V145.669ZM356.547 144.458L357.254 145.165C358.217 144.202 358.758 142.896 358.758 141.534H357.758H356.758C356.758 142.365 356.428 143.163 355.84 143.751L356.547 144.458ZM357.758 141.534H358.758V118.665H357.758H356.758V141.534H357.758ZM357.758 118.665L358.234 119.544L376.099 109.867L375.623 108.988L375.147 108.109L357.282 117.786L357.758 118.665ZM375.623 108.988L376.096 109.869C377.327 109.209 378.708 108.878 380.105 108.909L380.128 107.909L380.15 106.91C378.408 106.871 376.686 107.283 375.15 108.107L375.623 108.988ZM380.128 107.909L380.105 108.909C381.502 108.941 382.868 109.333 384.068 110.048L384.58 109.189L385.092 108.33C383.595 107.438 381.892 106.949 380.15 106.91L380.128 107.909ZM384.58 109.189L384.068 110.048C385.269 110.763 386.264 111.777 386.956 112.99L387.825 112.494L388.693 111.999C387.829 110.485 386.589 109.221 385.092 108.33L384.58 109.189ZM387.825 112.494L386.956 112.99C387.649 114.204 388.016 115.576 388.022 116.973L389.022 116.969L390.022 116.965C390.015 115.223 389.557 113.512 388.693 111.999L387.825 112.494ZM389.022 116.969H388.022V304.593H389.022H390.022V116.969H389.022ZM410.236 224.614L409.236 224.621C409.245 225.887 408.843 227.121 408.092 228.14L408.897 228.734L409.701 229.327C410.709 227.961 411.248 226.305 411.236 224.608L410.236 224.614ZM408.897 228.734L408.092 228.14C407.34 229.159 406.279 229.908 405.068 230.274L405.357 231.231L405.646 232.188C407.271 231.697 408.694 230.694 409.701 229.327L408.897 228.734ZM405.357 231.231L405.063 230.275L396.999 232.756L397.293 233.712L397.587 234.668L405.651 232.187L405.357 231.231ZM397.293 233.712H398.293V187.85H397.293H396.293V233.712H397.293ZM397.293 187.85L396.999 188.806L405.063 191.287L405.357 190.332L405.651 189.376L397.587 186.895L397.293 187.85ZM405.357 190.332L405.068 191.289C406.279 191.655 407.34 192.403 408.092 193.422L408.897 192.829L409.701 192.235C408.694 190.869 407.271 189.865 405.646 189.374L405.357 190.332ZM408.897 192.829L408.092 193.422C408.843 194.441 409.245 195.676 409.236 196.942L410.236 196.948L411.236 196.955C411.248 195.257 410.709 193.601 409.701 192.235L408.897 192.829ZM410.236 196.948H409.236V224.614H410.236H411.236V196.948H410.236Z" fill="white" mask="url(#path-3-inside-1_7641_13469)"/>
<path d="M320.125 311.586C333.919 311.607 347.145 317.085 356.915 326.824C366.532 336.411 372.031 349.36 372.262 362.921L372.269 363.566C372.302 373.886 369.271 383.983 363.561 392.58C357.851 401.176 349.719 407.885 340.194 411.857C330.669 415.829 320.179 416.885 310.053 414.891C299.928 412.898 290.622 407.945 283.313 400.659C276.004 393.373 271.021 384.082 268.996 373.963C266.97 363.844 267.994 353.351 271.935 343.813C275.877 334.276 282.561 326.122 291.139 320.386C299.718 314.649 309.805 311.586 320.125 311.586ZM337.182 322.224C328.98 318.854 319.963 317.989 311.269 319.739C302.576 321.489 294.595 325.776 288.337 332.058C282.078 338.341 277.821 346.337 276.103 355.037C274.385 363.737 275.283 372.751 278.684 380.94C282.085 389.13 287.838 396.128 295.214 401.052C302.589 405.975 311.258 408.602 320.126 408.602H320.626V408.43C332.339 408.278 343.539 403.563 351.832 395.27C360.242 386.86 364.977 375.459 364.999 363.565V363.562C364.966 354.694 362.306 346.035 357.355 338.678C352.404 331.32 345.384 325.595 337.182 322.224Z" stroke="white"/>
<path d="M308.742 338.812C309.944 338.215 311.286 337.962 312.622 338.08C313.875 338.192 315.076 338.626 316.109 339.338L316.313 339.484L341.116 358.665V358.666C341.992 359.346 342.701 360.217 343.189 361.213C343.676 362.209 343.93 363.303 343.93 364.412C343.93 365.521 343.676 366.615 343.189 367.61C342.701 368.606 341.993 369.477 341.117 370.157L316.313 389.34C315.236 390.139 313.958 390.625 312.622 390.743C311.286 390.862 309.944 390.609 308.742 390.013C307.541 389.416 306.528 388.499 305.816 387.362C305.148 386.297 304.768 385.078 304.711 383.825L304.704 383.574V345.249C304.719 343.908 305.103 342.597 305.816 341.461C306.528 340.325 307.541 339.408 308.742 338.812ZM311.975 383.654L312.783 383.023L336.107 364.785L336.612 364.391L336.107 363.997L312.782 345.801L311.975 345.171V383.654Z" stroke="white"/>
<path d="M110.956 271.265L111.399 271.271C115.966 271.385 120.336 273.191 123.653 276.348C127.077 279.608 129.119 284.059 129.356 288.78L129.379 289.255H142.262C144.561 289.25 146.81 289.926 148.724 291.2C150.638 292.474 152.13 294.287 153.013 296.409C153.896 298.532 154.13 300.869 153.684 303.124C153.238 305.379 152.133 307.451 150.509 309.078L129.479 330.108V361.331C129.479 366.215 127.542 370.899 124.092 374.356C120.643 377.813 115.963 379.761 111.08 379.771H40.4077C35.5241 379.761 30.8435 377.813 27.394 374.356C23.9445 370.899 22.0073 366.215 22.0073 361.331V289.666C22.018 284.789 23.9603 280.115 27.4087 276.667C30.7493 273.326 35.2396 271.399 39.9507 271.272L40.4077 271.265H110.956ZM122.208 289.662C122.197 286.715 121.021 283.891 118.937 281.807C116.853 279.723 114.03 278.547 111.083 278.536H40.4038C37.4567 278.547 34.6333 279.723 32.5493 281.807C30.4653 283.891 29.2893 286.715 29.2778 289.662V361.331C29.2778 364.286 30.4494 367.12 32.5347 369.214C34.6199 371.307 37.4493 372.489 40.4038 372.501H111.083C114.037 372.489 116.867 371.307 118.953 369.214C121.038 367.12 122.209 364.286 122.208 361.331V328.586C122.222 327.627 122.614 326.712 123.299 326.041L123.303 326.037L145.344 303.953C145.947 303.354 146.363 302.592 146.537 301.76C146.711 300.926 146.636 300.061 146.323 299.269C146.009 298.478 145.47 297.796 144.773 297.308C144.075 296.821 143.25 296.548 142.399 296.525H125.844C124.88 296.525 123.955 296.143 123.273 295.461C122.591 294.779 122.208 293.854 122.208 292.889V289.662Z" stroke="white"/>
<path d="M92.9057 296.871C95.028 296.871 97.129 297.292 99.0874 298.11C101.046 298.928 102.823 300.127 104.315 301.637L104.321 301.642L104.328 301.648L107.999 305.113V305.114C109.509 306.606 110.708 308.383 111.526 310.342C112.344 312.3 112.765 314.402 112.765 316.524C112.765 318.647 112.344 320.748 111.526 322.706C110.759 324.542 109.657 326.219 108.279 327.65L107.999 327.933L85.2133 350.43C83.0969 352.499 80.2547 353.659 77.2944 353.659C74.5182 353.659 71.8452 352.639 69.7778 350.806L69.3725 350.429L46.8803 327.935L46.8784 327.933L46.5991 327.65C45.2205 326.219 44.1189 324.542 43.352 322.706C42.5341 320.748 42.1128 318.647 42.1127 316.524C42.1127 314.402 42.5341 312.3 43.352 310.342C44.17 308.383 45.3688 306.606 46.8784 305.114L50.393 301.641L50.3969 301.637C51.8889 300.127 53.666 298.928 55.6245 298.11C57.583 297.292 59.6846 296.871 61.8071 296.871C63.9295 296.871 66.0312 297.292 67.9897 298.11C69.9481 298.928 71.7244 300.127 73.2163 301.637L77.3784 305.799L77.7319 305.441L81.4956 301.637C82.9875 300.127 84.7646 298.928 86.7231 298.11C88.6816 297.292 90.7833 296.871 92.9057 296.871ZM92.7602 304.293C91.592 304.293 90.4356 304.526 89.3588 304.979C88.2837 305.432 87.3096 306.094 86.4936 306.928L61.3276 332.094L61.6811 332.447L74.5004 345.267L74.5024 345.268C75.2618 346.02 76.2873 346.442 77.3559 346.442C78.4246 346.442 79.4499 346.02 80.2094 345.268L80.2114 345.267L102.666 322.811H102.667L102.673 322.806C104.284 321.139 105.169 318.903 105.136 316.586C105.103 314.269 104.154 312.058 102.497 310.438L99.0297 306.93C98.2133 306.095 97.2385 305.432 96.1626 304.979C95.0856 304.526 93.9286 304.293 92.7602 304.293ZM61.8071 303.983C60.644 303.983 59.4922 304.215 58.4194 304.664C57.3467 305.113 56.3741 305.771 55.5581 306.599L55.5522 306.605L52.0493 310.273C51.2139 311.09 50.5503 312.066 50.0971 313.142C49.644 314.219 49.4106 315.376 49.4106 316.545C49.4106 317.713 49.644 318.869 50.0971 319.946C50.5502 321.023 51.214 321.999 52.0493 322.815L52.0532 322.819L55.8579 326.459L56.2114 326.797L56.5571 326.45L71.8588 311.108L72.2114 310.755L68.0532 306.597C67.2378 305.769 66.2662 305.113 65.1948 304.664C64.1219 304.215 62.9702 303.983 61.8071 303.983Z" stroke="white"/>
<path d="M134.28 40.6746C139.488 40.6746 144.484 42.7435 148.167 46.4265C151.85 50.1097 153.919 55.1055 153.919 60.3142V120.856C153.89 125.933 151.897 130.802 148.356 134.44C144.814 138.079 140 140.205 134.925 140.372L134.442 140.388V154.519C134.442 156.945 133.723 159.317 132.376 161.335C131.03 163.353 129.116 164.926 126.875 165.857C124.635 166.788 122.169 167.035 119.788 166.566C117.557 166.126 115.494 165.076 113.828 163.536L113.501 163.221L90.6927 140.413H56.7426C51.5549 140.402 46.5816 138.34 42.9095 134.676C39.3523 131.126 37.2953 126.352 37.1508 121.341L37.1429 120.854V60.3142C37.1429 55.1125 39.2068 50.1232 42.8812 46.4412C46.4408 42.8743 51.2302 40.8162 56.2552 40.6814L56.7426 40.6746H134.28ZM146.649 60.3123C146.637 57.0359 145.331 53.8966 143.014 51.5799C140.697 49.2632 137.558 47.9565 134.282 47.9451H56.7396C53.4667 47.9565 50.3311 49.2654 48.0209 51.5838C45.7109 53.9021 44.4134 57.0415 44.4135 60.3142V120.86C44.4362 124.118 45.7435 127.235 48.0511 129.535C50.359 131.835 53.4816 133.131 56.7396 133.142H92.1849C92.6632 133.14 93.1377 133.231 93.5804 133.412C93.968 133.57 94.3244 133.795 94.6351 134.074L94.766 134.197L118.625 158.138L118.626 158.139C119.327 158.838 120.218 159.315 121.188 159.508C122.158 159.7 123.164 159.601 124.078 159.222C124.993 158.844 125.774 158.203 126.325 157.381C126.875 156.558 127.17 155.592 127.171 154.602V136.86C127.171 135.896 127.554 134.971 128.236 134.29C128.917 133.608 129.842 133.225 130.806 133.225H134.282C137.558 133.214 140.697 131.907 143.014 129.591C145.331 127.274 146.637 124.135 146.649 120.858V60.3123Z" stroke="white"/>
<path d="M69.3544 64.66H121.667C122.631 64.66 123.556 65.0427 124.238 65.7245C124.92 66.4062 125.303 67.3316 125.303 68.2957C125.303 69.2597 124.92 70.1844 124.238 70.8661C123.556 71.5478 122.631 71.9305 121.667 71.9305H69.3544C68.3903 71.9305 67.4649 71.5478 66.7831 70.8661C66.1015 70.1844 65.7188 69.2597 65.7187 68.2957C65.7187 67.3316 66.1014 66.4062 66.7831 65.7245C67.4649 65.0427 68.3903 64.66 69.3544 64.66Z" stroke="white"/>
<path d="M69.3544 85.9574H121.667C122.631 85.9574 123.556 86.3401 124.238 87.0219C124.92 87.7036 125.303 88.629 125.303 89.5932C125.303 90.5571 124.92 91.4818 124.238 92.1635C123.556 92.8453 122.631 93.2279 121.667 93.2279H69.3544C68.3903 93.2279 67.4649 92.8453 66.7831 92.1635C66.1015 91.4818 65.7188 90.5571 65.7187 89.5932C65.7187 88.629 66.1014 87.7037 66.7831 87.0219C67.4649 86.3401 68.3903 85.9574 69.3544 85.9574Z" stroke="white"/>
<path d="M69.3544 107.214H121.667C122.631 107.214 123.556 107.596 124.238 108.278C124.92 108.96 125.303 109.885 125.303 110.849C125.303 111.813 124.92 112.738 124.238 113.42C123.556 114.101 122.631 114.484 121.667 114.484H69.3544C68.3903 114.484 67.4649 114.101 66.7831 113.42C66.1015 112.738 65.7188 111.813 65.7187 110.849C65.7187 109.885 66.1014 108.96 66.7831 108.278C67.4649 107.596 68.3903 107.214 69.3544 107.214Z" stroke="white"/>
<path d="M238.785 40.2003C239.414 40.0969 240.06 40.1613 240.656 40.3859C241.253 40.6105 241.78 40.988 242.185 41.4806C242.539 41.9118 242.788 42.4179 242.915 42.9591L242.962 43.1925C243.667 47.7742 245.612 50.2552 247.975 52.2062C249.135 53.1644 250.412 54.0068 251.644 54.8868C252.886 55.7748 254.113 56.7209 255.247 57.9249V57.9259C258.29 61.1896 260.315 65.271 261.07 69.6691C261.826 74.0671 261.28 78.5905 259.5 82.6827C257.72 86.7747 254.785 90.2578 251.053 92.7042C247.321 95.1507 242.955 96.4546 238.492 96.4542C233.848 96.4536 229.313 95.0406 225.489 92.4034C221.666 89.7663 218.735 86.0291 217.084 81.6876C215.433 77.3461 215.141 72.6051 216.247 68.0939C217.353 63.5827 219.804 59.514 223.275 56.4279L223.278 56.4259C223.946 55.8231 224.814 55.4894 225.714 55.4894C226.614 55.4894 227.482 55.8231 228.15 56.4259L228.894 57.0968L228.983 56.0988C229.245 53.1643 230.096 50.313 231.485 47.715C232.875 45.1168 234.774 42.8251 237.069 40.9777L237.072 40.9747C237.566 40.571 238.156 40.3038 238.785 40.2003ZM237.539 52.255C236.026 55.6908 235.885 59.5759 237.147 63.1115H237.148C237.35 63.7507 237.371 64.4335 237.209 65.0841C237.047 65.7346 236.709 66.3278 236.232 66.798C235.754 67.2682 235.155 67.5978 234.502 67.7491C233.849 67.9005 233.166 67.8676 232.53 67.6554H232.531C230.328 66.918 228.253 65.8407 226.383 64.4611L225.264 63.6349L225.588 64.9327C223.974 67.3106 223.044 70.0882 222.905 72.962C222.763 75.913 223.46 78.844 224.915 81.4152C226.37 83.9863 228.524 86.0929 231.127 87.4904C233.73 88.8878 236.676 89.5196 239.623 89.3116C242.57 89.1037 245.398 88.0646 247.779 86.3156C250.16 84.5665 251.998 82.1788 253.077 79.4288C254.157 76.6789 254.435 73.6792 253.88 70.7775C253.325 67.8756 251.959 65.1898 249.941 63.0323L249.935 63.0265L249.673 62.7667C249.044 62.1663 248.287 61.5935 247.471 61.007C246.527 60.3282 245.506 59.6323 244.446 58.8214C242.34 57.2096 240.142 55.189 238.43 52.2081L237.938 51.3507L237.539 52.255Z" stroke="white"/>
<rect opacity="0.5" x="4.28976" y="4.78824" width="430.434" height="430.434" stroke="white"/>
<rect x="0.507324" y="1.00519" width="7.56622" height="7.56622" rx="1" fill="#EFF6FF" stroke="white"/>
</svg>
