<svg width="36" height="36" viewBox="0 0 36 36" fill="none" xmlns="http://www.w3.org/2000/svg">
<path d="M0 27.8919H7.59557V35.363H0V27.8919Z" fill="white"/>
<path d="M35.8611 27.8919V35.363H28.2655V27.8919H35.8611ZM30.2578 33.3707H33.8688V29.8842H30.2578V33.3707Z" fill="white"/>
<path d="M28.2655 0H35.8611V7.47105L31.8143 3.61101L28.2655 0Z" fill="white"/>
<path d="M7.59557 0V7.47105H0V0H7.59557ZM1.99228 5.47877H5.60329V1.99228H1.99228V5.47877Z" fill="white"/>
<path d="M30.656 29.0606L29.2369 30.4589L5.71913 6.59068L7.13818 5.19242L30.656 29.0606Z" fill="white"/>
<path d="M33.9813 0.533312L35.3749 1.95706L7.08475 29.6479L5.69103 28.2242L33.9813 0.533312Z" fill="white"/>
</svg>
